<svg id="Layer_1" data-name="Layer 1" xmlns="http://www.w3.org/2000/svg" xmlns:xlink="http://www.w3.org/1999/xlink" width="631" height="200" viewBox="0 0 631 200"><defs><style>.cls-1,.cls-10,.cls-12,.cls-13,.cls-14,.cls-15,.cls-16,.cls-17,.cls-18,.cls-19,.cls-2,.cls-20,.cls-21,.cls-22,.cls-23,.cls-24,.cls-25,.cls-26,.cls-27,.cls-28,.cls-29,.cls-3,.cls-30,.cls-31,.cls-32,.cls-33,.cls-34,.cls-35,.cls-36,.cls-37,.cls-38,.cls-39,.cls-4,.cls-40,.cls-41,.cls-42,.cls-43,.cls-44,.cls-45,.cls-46,.cls-47,.cls-48,.cls-49,.cls-5,.cls-50,.cls-51,.cls-52,.cls-53,.cls-54,.cls-55,.cls-56,.cls-57,.cls-58,.cls-59,.cls-6,.cls-60,.cls-61,.cls-8,.cls-9{stroke:#000;stroke-miterlimit:10;}.cls-1{fill:url(#linear-gradient);}.cls-2{fill:url(#linear-gradient-2);}.cls-3{fill:url(#linear-gradient-3);}.cls-4{fill:url(#linear-gradient-4);}.cls-5{fill:url(#linear-gradient-5);}.cls-6{fill:url(#linear-gradient-6);}.cls-7{fill:#eabb9b;}.cls-8{fill:url(#linear-gradient-7);}.cls-9{fill:url(#linear-gradient-8);}.cls-10{fill:#ff7bac;}.cls-11{fill:#fff;}.cls-12{fill:none;}.cls-13{fill:url(#linear-gradient-9);}.cls-14{fill:url(#linear-gradient-10);}.cls-15{fill:url(#linear-gradient-11);}.cls-16{fill:url(#linear-gradient-12);}.cls-17{fill:url(#linear-gradient-13);}.cls-18{fill:url(#linear-gradient-14);}.cls-19{fill:url(#linear-gradient-15);}.cls-20{fill:url(#linear-gradient-16);}.cls-21{fill:url(#linear-gradient-17);}.cls-22{fill:url(#linear-gradient-18);}.cls-23{fill:url(#linear-gradient-19);}.cls-24{fill:url(#linear-gradient-20);}.cls-25{fill:url(#linear-gradient-21);}.cls-26{fill:url(#linear-gradient-22);}.cls-27{fill:url(#linear-gradient-23);}.cls-28{fill:url(#linear-gradient-24);}.cls-29{fill:url(#linear-gradient-25);}.cls-30{fill:url(#linear-gradient-26);}.cls-31{fill:url(#linear-gradient-27);}.cls-32{fill:url(#linear-gradient-28);}.cls-33{fill:url(#linear-gradient-29);}.cls-34{fill:url(#linear-gradient-30);}.cls-35{fill:url(#linear-gradient-31);}.cls-36{fill:url(#linear-gradient-32);}.cls-37{fill:url(#linear-gradient-33);}.cls-38{fill:url(#linear-gradient-34);}.cls-39{fill:url(#linear-gradient-35);}.cls-40{fill:url(#linear-gradient-36);}.cls-41{fill:url(#linear-gradient-37);}.cls-42{fill:url(#linear-gradient-38);}.cls-43{fill:url(#linear-gradient-39);}.cls-44{fill:url(#linear-gradient-40);}.cls-45{fill:url(#linear-gradient-41);}.cls-46{fill:url(#linear-gradient-42);}.cls-47{fill:url(#linear-gradient-43);}.cls-48{fill:url(#linear-gradient-44);}.cls-49{fill:url(#linear-gradient-45);}.cls-50{fill:url(#linear-gradient-46);}.cls-51{fill:url(#linear-gradient-47);}.cls-52{fill:url(#linear-gradient-48);}.cls-53{fill:url(#linear-gradient-49);}.cls-54{fill:url(#linear-gradient-50);}.cls-55{fill:url(#linear-gradient-51);}.cls-56{fill:url(#linear-gradient-52);}.cls-57{fill:url(#linear-gradient-53);}.cls-58{fill:url(#linear-gradient-54);}.cls-59{fill:url(#linear-gradient-55);}.cls-60{fill:url(#linear-gradient-56);}.cls-61{fill:url(#linear-gradient-57);}</style><linearGradient id="linear-gradient" x1="483.23" y1="182.28" x2="520.12" y2="182.28" gradientTransform="translate(992.95 292.86) rotate(174.13)" gradientUnits="userSpaceOnUse"><stop offset="0" stop-color="#a67c52"/><stop offset="0.3" stop-color="#9c7249"/><stop offset="0.81" stop-color="#81582f"/><stop offset="1" stop-color="#754c24"/></linearGradient><linearGradient id="linear-gradient-2" x1="475.37" y1="163.29" x2="498.44" y2="163.29" gradientTransform="translate(671.61 -333.03) rotate(91.55)" xlink:href="#linear-gradient"/><linearGradient id="linear-gradient-3" x1="523.31" y1="124.71" x2="555.2" y2="124.71" gradientTransform="translate(396.12 -409.95) rotate(61.99)" gradientUnits="userSpaceOnUse"><stop offset="0" stop-color="#a67c52"/><stop offset="0.07" stop-color="#a1784e"/><stop offset="0.67" stop-color="#81582f"/><stop offset="1" stop-color="#754c24"/></linearGradient><linearGradient id="linear-gradient-4" x1="456.9" y1="122.8" x2="516.08" y2="122.8" gradientTransform="matrix(1, 0, 0, 1, 0, 0)" xlink:href="#linear-gradient"/><linearGradient id="linear-gradient-5" x1="495.32" y1="115.01" x2="541" y2="115.01" gradientTransform="matrix(1, 0, 0, 1, 0, 0)" xlink:href="#linear-gradient"/><linearGradient id="linear-gradient-6" x1="501.29" y1="30.45" x2="517.91" y2="30.45" gradientTransform="translate(-0.82 24.86)" gradientUnits="userSpaceOnUse"><stop offset="0" stop-color="#a67c52"/><stop offset="0.86" stop-color="#7c532b"/><stop offset="1" stop-color="#754c24"/></linearGradient><linearGradient id="linear-gradient-7" x1="517.55" y1="140.5" x2="540.72" y2="140.5" gradientTransform="translate(172.19 -274.61) rotate(34.44)" xlink:href="#linear-gradient"/><linearGradient id="linear-gradient-8" x1="521.28" y1="92.68" x2="572.15" y2="92.68" gradientTransform="matrix(1, 0, 0, 1, 0, 0)" xlink:href="#linear-gradient-6"/><linearGradient id="linear-gradient-9" x1="531.77" y1="38.54" x2="548.38" y2="38.54" gradientTransform="translate(-1.87 5.42)" xlink:href="#linear-gradient-6"/><linearGradient id="linear-gradient-10" x1="430.9" y1="175.62" x2="471.22" y2="175.62" gradientTransform="matrix(-0.82, 0.57, -0.57, -0.82, 907.9, 33.08)" xlink:href="#linear-gradient"/><linearGradient id="linear-gradient-11" x1="436.01" y1="149.92" x2="466.64" y2="149.92" gradientTransform="translate(412.58 -336.18) rotate(65.77)" xlink:href="#linear-gradient"/><linearGradient id="linear-gradient-12" x1="534.71" y1="159.25" x2="552.9" y2="159.25" gradientTransform="translate(100.58 -194.28) rotate(22.34)" xlink:href="#linear-gradient-6"/><linearGradient id="linear-gradient-13" x1="551.69" y1="172.39" x2="557.92" y2="172.39" gradientTransform="translate(-23.03 134.01) rotate(-13.72)" xlink:href="#linear-gradient-6"/><linearGradient id="linear-gradient-14" x1="547.54" y1="176.03" x2="554.8" y2="176.03" gradientTransform="translate(-23.03 134.01) rotate(-13.72)" xlink:href="#linear-gradient-6"/><linearGradient id="linear-gradient-15" x1="542.34" y1="176.54" x2="548.57" y2="176.54" gradientTransform="translate(-23.03 134.01) rotate(-13.72)" xlink:href="#linear-gradient-6"/><linearGradient id="linear-gradient-16" x1="552.93" y1="141.76" x2="573.94" y2="141.76" gradientTransform="matrix(0.87, 0.49, -0.49, 0.87, 139.83, -257.7)" xlink:href="#linear-gradient-3"/><linearGradient id="linear-gradient-17" x1="572.82" y1="153.48" x2="579.05" y2="153.48" gradientTransform="matrix(0.95, -0.32, 0.32, 0.95, -16.95, 187.41)" xlink:href="#linear-gradient-3"/><linearGradient id="linear-gradient-18" x1="569.13" y1="157.53" x2="576.39" y2="157.53" gradientTransform="matrix(0.95, -0.32, 0.32, 0.95, -16.95, 187.41)" xlink:href="#linear-gradient-3"/><linearGradient id="linear-gradient-19" x1="564.04" y1="158.73" x2="570.27" y2="158.73" gradientTransform="matrix(0.95, -0.32, 0.32, 0.95, -16.95, 187.41)" xlink:href="#linear-gradient-3"/><linearGradient id="linear-gradient-20" x1="313.31" y1="124.71" x2="345.2" y2="124.71" gradientTransform="translate(284.74 -224.54) rotate(61.99)" xlink:href="#linear-gradient-3"/><linearGradient id="linear-gradient-21" x1="274.74" y1="169.41" x2="311.63" y2="169.41" gradientTransform="translate(423.86 -143.31) rotate(84.13)" xlink:href="#linear-gradient"/><linearGradient id="linear-gradient-22" x1="273.61" y1="151.72" x2="296.67" y2="151.72" gradientTransform="translate(126.25 -133.26) rotate(31.96)" xlink:href="#linear-gradient"/><linearGradient id="linear-gradient-23" x1="246.9" y1="122.8" x2="306.08" y2="122.8" gradientTransform="matrix(1, 0, 0, 1, 0, 0)" xlink:href="#linear-gradient"/><linearGradient id="linear-gradient-24" x1="285.32" y1="115.01" x2="331" y2="115.01" gradientTransform="matrix(1, 0, 0, 1, 0, 0)" xlink:href="#linear-gradient"/><linearGradient id="linear-gradient-25" x1="297.61" y1="38.82" x2="314.22" y2="38.82" gradientTransform="translate(0.03 10.84)" xlink:href="#linear-gradient-6"/><linearGradient id="linear-gradient-26" x1="326.16" y1="39.34" x2="342.78" y2="39.34" gradientTransform="translate(-1.43 1.28)" xlink:href="#linear-gradient-6"/><linearGradient id="linear-gradient-27" x1="307.55" y1="140.5" x2="330.72" y2="140.5" gradientTransform="translate(135.38 -155.85) rotate(34.44)" xlink:href="#linear-gradient"/><linearGradient id="linear-gradient-28" x1="311.28" y1="92.68" x2="362.15" y2="92.68" gradientTransform="matrix(1, 0, 0, 1, 0, 0)" xlink:href="#linear-gradient-6"/><linearGradient id="linear-gradient-29" x1="234.44" y1="158.04" x2="274.76" y2="158.04" gradientTransform="translate(236.6 -141.91) rotate(55.09)" xlink:href="#linear-gradient"/><linearGradient id="linear-gradient-30" x1="239.54" y1="132.34" x2="270.18" y2="132.34" gradientTransform="translate(51.14 -64.41) rotate(15.9)" xlink:href="#linear-gradient"/><linearGradient id="linear-gradient-31" x1="316.33" y1="171.79" x2="334.53" y2="171.79" gradientTransform="translate(604.83 -71.88) rotate(112.34)" xlink:href="#linear-gradient-6"/><linearGradient id="linear-gradient-32" x1="333.31" y1="184.93" x2="339.54" y2="184.93" gradientTransform="translate(201.37 -183.74) rotate(42.99)" xlink:href="#linear-gradient-6"/><linearGradient id="linear-gradient-33" x1="329.16" y1="188.56" x2="336.43" y2="188.56" gradientTransform="translate(201.37 -183.74) rotate(42.99)" xlink:href="#linear-gradient-6"/><linearGradient id="linear-gradient-34" x1="323.97" y1="189.08" x2="330.2" y2="189.08" gradientTransform="translate(201.37 -183.74) rotate(42.99)" xlink:href="#linear-gradient-6"/><linearGradient id="linear-gradient-35" x1="334.51" y1="146.8" x2="355.52" y2="146.8" gradientTransform="matrix(0.87, 0.49, -0.49, 0.87, 115, -152.88)" xlink:href="#linear-gradient-3"/><linearGradient id="linear-gradient-36" x1="354.4" y1="158.52" x2="360.63" y2="158.52" gradientTransform="translate(31.9 -63.54) rotate(10.52)" xlink:href="#linear-gradient-3"/><linearGradient id="linear-gradient-37" x1="350.71" y1="162.57" x2="357.98" y2="162.57" gradientTransform="translate(31.9 -63.54) rotate(10.52)" xlink:href="#linear-gradient-3"/><linearGradient id="linear-gradient-38" x1="345.62" y1="163.77" x2="351.85" y2="163.77" gradientTransform="translate(31.9 -63.54) rotate(10.52)" xlink:href="#linear-gradient-3"/><linearGradient id="linear-gradient-39" x1="103.31" y1="124.71" x2="135.2" y2="124.71" gradientTransform="translate(173.36 -39.14) rotate(61.99)" xlink:href="#linear-gradient-3"/><linearGradient id="linear-gradient-40" x1="67.92" y1="165.07" x2="104.82" y2="165.07" gradientTransform="translate(241.74 62.27) rotate(84.13)" xlink:href="#linear-gradient"/><linearGradient id="linear-gradient-41" x1="66.79" y1="147.37" x2="89.86" y2="147.37" gradientTransform="matrix(1, 0, 0, 1, 0, 0)" xlink:href="#linear-gradient"/><linearGradient id="linear-gradient-42" x1="36.9" y1="122.8" x2="96.08" y2="122.8" gradientTransform="matrix(1, 0, 0, 1, 0, 0)" xlink:href="#linear-gradient"/><linearGradient id="linear-gradient-43" x1="75.32" y1="115.01" x2="121" y2="115.01" gradientTransform="matrix(1, 0, 0, 1, 0, 0)" xlink:href="#linear-gradient"/><linearGradient id="linear-gradient-44" x1="104.91" y1="43.88" x2="121.52" y2="43.88" gradientTransform="matrix(1, 0, 0, 1, 0, 0)" xlink:href="#linear-gradient-6"/><linearGradient id="linear-gradient-45" x1="133.46" y1="44.4" x2="150.08" y2="44.4" gradientTransform="matrix(1, 0, 0, 1, 0, 0)" xlink:href="#linear-gradient-6"/><linearGradient id="linear-gradient-46" x1="97.55" y1="140.5" x2="120.72" y2="140.5" gradientTransform="translate(98.58 -37.09) rotate(34.44)" xlink:href="#linear-gradient"/><linearGradient id="linear-gradient-47" x1="101.28" y1="92.68" x2="152.15" y2="92.68" gradientTransform="matrix(1, 0, 0, 1, 0, 0)" xlink:href="#linear-gradient-6"/><linearGradient id="linear-gradient-48" x1="26.09" y1="163.81" x2="66.4" y2="163.81" gradientTransform="translate(154.1 32.13) rotate(55.09)" xlink:href="#linear-gradient"/><linearGradient id="linear-gradient-49" x1="31.19" y1="138.11" x2="61.82" y2="138.11" gradientTransform="matrix(1, 0, 0, 1, 0, 0)" xlink:href="#linear-gradient"/><linearGradient id="linear-gradient-50" x1="112.33" y1="162.09" x2="130.53" y2="162.09" gradientTransform="translate(70.73 -33.99) rotate(22.34)" xlink:href="#linear-gradient-6"/><linearGradient id="linear-gradient-51" x1="129.31" y1="175.23" x2="135.54" y2="175.23" gradientTransform="matrix(1, 0, 0, 1, 0, 0)" xlink:href="#linear-gradient-6"/><linearGradient id="linear-gradient-52" x1="125.16" y1="178.87" x2="132.43" y2="178.87" gradientTransform="matrix(1, 0, 0, 1, 0, 0)" xlink:href="#linear-gradient-6"/><linearGradient id="linear-gradient-53" x1="119.97" y1="179.38" x2="126.2" y2="179.38" gradientTransform="matrix(1, 0, 0, 1, 0, 0)" xlink:href="#linear-gradient-6"/><linearGradient id="linear-gradient-54" x1="128.18" y1="143.32" x2="149.19" y2="143.32" gradientTransform="translate(87.69 -49.48) rotate(29.24)" xlink:href="#linear-gradient-3"/><linearGradient id="linear-gradient-55" x1="148.07" y1="155.04" x2="154.3" y2="155.04" gradientTransform="matrix(1, 0, 0, 1, 0, 0)" xlink:href="#linear-gradient-3"/><linearGradient id="linear-gradient-56" x1="144.38" y1="159.09" x2="151.64" y2="159.09" gradientTransform="matrix(1, 0, 0, 1, 0, 0)" xlink:href="#linear-gradient-3"/><linearGradient id="linear-gradient-57" x1="139.29" y1="160.29" x2="145.52" y2="160.29" gradientTransform="matrix(1, 0, 0, 1, 0, 0)" xlink:href="#linear-gradient-3"/></defs><title>hare_ani</title><ellipse class="cls-1" cx="475.26" cy="162.84" rx="18.53" ry="6.45" transform="translate(98.46 495.12) rotate(-60.32)"/><circle class="cls-2" cx="495.17" cy="149.27" r="11.53"/><ellipse class="cls-3" cx="539.26" cy="124.71" rx="6.18" ry="17.76" transform="translate(175.91 542.24) rotate(-61.99)"/><circle class="cls-4" cx="486.49" cy="122.8" r="29.59"/><circle class="cls-5" cx="518.16" cy="115.01" r="22.84"/><ellipse class="cls-6" cx="508.79" cy="55.32" rx="8.31" ry="23.88" transform="translate(64.48 309.32) rotate(-35.96)"/><ellipse class="cls-7" cx="510.15" cy="57.85" rx="5.33" ry="15.32" transform="translate(63.26 310.61) rotate(-35.96)"/><ellipse class="cls-8" cx="529.13" cy="140.5" rx="6.35" ry="18.27" transform="translate(13.28 323.85) rotate(-34.44)"/><circle class="cls-9" cx="546.72" cy="92.68" r="25.44"/><circle class="cls-7" cx="570.92" cy="95.28" r="7.57"/><circle class="cls-7" cx="566.72" cy="90.24" r="2.94"/><circle class="cls-7" cx="570.92" cy="89.4" r="2.94"/><circle class="cls-7" cx="575.12" cy="91.08" r="2.94"/><circle class="cls-7" cx="576.8" cy="95.28" r="2.94"/><circle class="cls-7" cx="575.12" cy="99.48" r="2.94"/><circle class="cls-7" cx="571.76" cy="101.16" r="2.94"/><circle class="cls-7" cx="567.56" cy="101.16" r="2.94"/><circle class="cls-7" cx="565.03" cy="97.8" r="2.94"/><circle class="cls-7" cx="564.19" cy="93.6" r="2.94"/><circle class="cls-7" cx="522.31" cy="96.32" r="7.57"/><circle class="cls-7" cx="526.52" cy="91.27" r="2.94"/><circle class="cls-7" cx="522.31" cy="90.43" r="2.94"/><circle class="cls-7" cx="518.11" cy="92.12" r="2.94"/><circle class="cls-7" cx="516.43" cy="96.32" r="2.94"/><circle class="cls-7" cx="518.11" cy="100.52" r="2.94"/><circle class="cls-7" cx="521.47" cy="102.2" r="2.94"/><circle class="cls-7" cx="525.68" cy="102.2" r="2.94"/><circle class="cls-7" cx="528.2" cy="98.84" r="2.94"/><circle class="cls-7" cx="529.04" cy="94.64" r="2.94"/><circle class="cls-7" cx="462.01" cy="98.48" r="10.17"/><circle class="cls-7" cx="467.66" cy="91.7" r="3.95"/><circle class="cls-7" cx="462.01" cy="90.57" r="3.95"/><circle class="cls-7" cx="456.36" cy="92.83" r="3.95"/><circle class="cls-7" cx="454.1" cy="98.48" r="3.95"/><circle class="cls-7" cx="456.36" cy="104.12" r="3.95"/><circle class="cls-7" cx="460.88" cy="106.38" r="3.95"/><circle class="cls-7" cx="466.53" cy="106.38" r="3.95"/><circle class="cls-7" cx="469.92" cy="101.86" r="3.95"/><circle class="cls-7" cx="471.05" cy="96.22" r="3.95"/><path class="cls-10" d="M547.36,101.25a9.46,9.46,0,0,0,5.65,1.82,14.65,14.65,0,0,1-5.78,6.75,13.42,13.42,0,0,1-5.22-6.75A13,13,0,0,0,547.36,101.25Z"/><path class="cls-11" d="M546.72,102v4.15H543.6v-3.11A7,7,0,0,0,546.72,102Z"/><path class="cls-11" d="M547.75,102v4.15h3.12v-3.11A7,7,0,0,1,547.75,102Z"/><path class="cls-12" d="M547.75,95.8V101a12.2,12.2,0,0,1-6.23,2.08c-1.61-.06-3-1-4.15-3.12"/><path class="cls-12" d="M547.23,95.8V101a8.6,8.6,0,0,0,6.23,2.08c1.62-.06,3-1,4.16-3.12"/><ellipse class="cls-10" cx="547.23" cy="96.32" rx="4.15" ry="2.08"/><ellipse class="cls-13" cx="538.2" cy="43.97" rx="8.31" ry="23.88" transform="translate(76.76 324.43) rotate(-35.96)"/><ellipse class="cls-7" cx="540.29" cy="46.62" rx="5.33" ry="15.32" transform="translate(75.6 326.17) rotate(-35.96)"/><ellipse class="cls-14" cx="437.51" cy="147.22" rx="23.88" ry="8.31" transform="translate(94.11 455.71) rotate(-60.53)"/><circle class="cls-15" cx="461.05" cy="136.91" r="15.32"/><path class="cls-12" d="M434.14,150.15c-3.09,2.24-5.56,2.53-7.49.45"/><path class="cls-12" d="M432.57,155.52c-3.09,2.24-5.56,2.53-7.49.44"/><path class="cls-12" d="M430.89,159.85c-3.09,2.24-5.55,2.53-7.48.45"/><path class="cls-12" d="M474.63,163.56c-2.84,2.55-5.26,3.09-7.4,1.21"/><path class="cls-12" d="M472.54,168.31c-2.84,2.55-5.27,3.09-7.4,1.21"/><path class="cls-12" d="M471.81,172.53c-2.84,2.55-5.27,3.09-7.4,1.21"/><ellipse class="cls-16" cx="543.04" cy="159.72" rx="6.35" ry="18.27" transform="translate(10.03 350.27) rotate(-36.06)"/><circle class="cls-17" cx="556.84" cy="169.88" r="3.12"/><circle class="cls-18" cx="554.17" cy="174.27" r="3.63"/><circle class="cls-19" cx="548.74" cy="176.13" r="3.12"/><ellipse class="cls-20" cx="562.2" cy="141.24" rx="6.35" ry="18.27" transform="translate(80.62 463.89) rotate(-47.92)"/><circle class="cls-21" cx="577.8" cy="148.34" r="3.12"/><circle class="cls-22" cx="576.09" cy="153.19" r="3.63"/><circle class="cls-23" cx="571.16" cy="156.12" r="3.12"/><ellipse class="cls-24" cx="329.26" cy="124.71" rx="6.18" ry="17.76" transform="translate(64.53 356.84) rotate(-61.99)"/><ellipse class="cls-25" cx="285.32" cy="165.66" rx="6.45" ry="18.53" transform="translate(-37.71 232.77) rotate(-41.88)"/><circle class="cls-26" cx="287.86" cy="146.39" r="11.53"/><circle class="cls-27" cx="276.49" cy="122.8" r="29.59"/><circle class="cls-28" cx="308.16" cy="115.01" r="22.84"/><ellipse class="cls-29" cx="305.95" cy="49.66" rx="8.31" ry="23.88" transform="translate(0.96 104.93) rotate(-19.49)"/><ellipse class="cls-7" cx="306.54" cy="52.48" rx="5.33" ry="15.32" transform="translate(0.06 105.29) rotate(-19.49)"/><ellipse class="cls-30" cx="333.04" cy="40.62" rx="8.31" ry="23.88" transform="translate(5.53 113.45) rotate(-19.49)"/><ellipse class="cls-31" cx="319.13" cy="140.5" rx="6.35" ry="18.27" transform="translate(-23.52 205.1) rotate(-34.44)"/><circle class="cls-32" cx="336.72" cy="92.68" r="25.44"/><circle class="cls-7" cx="360.92" cy="95.28" r="7.57"/><circle class="cls-7" cx="356.72" cy="90.24" r="2.94"/><circle class="cls-7" cx="360.92" cy="89.4" r="2.94"/><circle class="cls-7" cx="365.12" cy="91.08" r="2.94"/><circle class="cls-7" cx="366.8" cy="95.28" r="2.94"/><circle class="cls-7" cx="365.12" cy="99.48" r="2.94"/><circle class="cls-7" cx="361.76" cy="101.16" r="2.94"/><circle class="cls-7" cx="357.56" cy="101.16" r="2.94"/><circle class="cls-7" cx="355.03" cy="97.8" r="2.94"/><circle class="cls-7" cx="354.19" cy="93.6" r="2.94"/><circle class="cls-7" cx="312.31" cy="96.32" r="7.57"/><circle class="cls-7" cx="316.52" cy="91.27" r="2.94"/><circle class="cls-7" cx="312.31" cy="90.43" r="2.94"/><circle class="cls-7" cx="308.11" cy="92.12" r="2.94"/><circle class="cls-7" cx="306.43" cy="96.32" r="2.94"/><circle class="cls-7" cx="308.11" cy="100.52" r="2.94"/><circle class="cls-7" cx="311.47" cy="102.2" r="2.94"/><circle class="cls-7" cx="315.68" cy="102.2" r="2.94"/><circle class="cls-7" cx="318.2" cy="98.84" r="2.94"/><circle class="cls-7" cx="319.04" cy="94.64" r="2.94"/><circle class="cls-7" cx="252.01" cy="98.48" r="10.17"/><circle class="cls-7" cx="257.66" cy="91.7" r="3.95"/><circle class="cls-7" cx="252.01" cy="90.57" r="3.95"/><circle class="cls-7" cx="246.36" cy="92.83" r="3.95"/><circle class="cls-7" cx="244.1" cy="98.48" r="3.95"/><circle class="cls-7" cx="246.36" cy="104.12" r="3.95"/><circle class="cls-7" cx="250.88" cy="106.38" r="3.95"/><circle class="cls-7" cx="256.53" cy="106.38" r="3.95"/><circle class="cls-7" cx="259.92" cy="101.86" r="3.95"/><circle class="cls-7" cx="261.05" cy="96.22" r="3.95"/><path d="M327.17,85.12l2.84-.39a2.56,2.56,0,0,1,0,.39,2.87,2.87,0,0,1-5.71.47Z"/><path class="cls-11" d="M326.33,85.2l1-.12a1.13,1.13,0,0,1-.87,1.32,1.12,1.12,0,0,1-1.18-1Z"/><path d="M346.17,84.12l2.84-.39a2.56,2.56,0,0,1,0,.39,2.87,2.87,0,0,1-5.71.47Z"/><path class="cls-11" d="M345.33,84.2l1-.12a1.13,1.13,0,0,1-.87,1.32,1.12,1.12,0,0,1-1.18-1Z"/><path class="cls-10" d="M337.36,101.25a9.46,9.46,0,0,0,5.65,1.82,14.65,14.65,0,0,1-5.78,6.75,13.42,13.42,0,0,1-5.22-6.75A13,13,0,0,0,337.36,101.25Z"/><path class="cls-11" d="M336.72,102v4.15H333.6v-3.11A7,7,0,0,0,336.72,102Z"/><path class="cls-11" d="M337.75,102v4.15h3.12v-3.11A7,7,0,0,1,337.75,102Z"/><path class="cls-12" d="M337.75,95.8V101a12.2,12.2,0,0,1-6.23,2.08c-1.61-.06-3-1-4.15-3.12"/><path class="cls-12" d="M337.23,95.8V101a8.6,8.6,0,0,0,6.23,2.08c1.62-.06,3-1,4.16-3.12"/><ellipse class="cls-10" cx="337.23" cy="96.32" rx="4.15" ry="2.08"/><ellipse class="cls-7" cx="334.29" cy="43.76" rx="5.33" ry="15.32" transform="translate(4.56 114.05) rotate(-19.49)"/><ellipse class="cls-33" cx="252.72" cy="157.32" rx="8.31" ry="23.88" transform="translate(-42.49 119) rotate(-24.51)"/><circle class="cls-34" cx="260.01" cy="132.67" r="15.32"/><path class="cls-12" d="M253.11,161.77c0,3.81-1.23,6-4.05,6.31"/><path class="cls-12" d="M256.52,166.2c0,3.81-1.22,6-4,6.31"/><path class="cls-12" d="M259,170.1c0,3.81-1.22,6-4,6.31"/><path class="cls-12" d="M285.8,166.48c1.52,3.51,1.27,6-1.19,7.41"/><path class="cls-12" d="M289.65,170c1.51,3.5,1.26,6-1.19,7.4"/><path class="cls-12" d="M293.42,172c1.52,3.5,1.26,6-1.19,7.4"/><ellipse class="cls-35" cx="322.24" cy="163.83" rx="18.27" ry="6.35" transform="translate(55.27 407.57) rotate(-69.34)"/><circle class="cls-36" cx="321.33" cy="180.94" r="3.12"/><circle class="cls-37" cx="316.19" cy="181.12" r="3.63"/><circle class="cls-38" cx="311.66" cy="177.61" r="3.12"/><ellipse class="cls-39" cx="344.33" cy="143.76" rx="6.35" ry="18.27" transform="translate(-27.93 118.17) rotate(-18.73)"/><circle class="cls-40" cx="354.48" cy="157.57" r="3.12"/><circle class="cls-41" cx="350.62" cy="160.96" r="3.63"/><circle class="cls-42" cx="344.89" cy="161.12" r="3.12"/><ellipse class="cls-43" cx="119.26" cy="124.71" rx="6.18" ry="17.76" transform="translate(-46.85 171.43) rotate(-61.99)"/><ellipse class="cls-44" cx="86.37" cy="165.07" rx="6.45" ry="18.53" transform="matrix(0.1, -0.99, 0.99, 0.1, -86.66, 234.11)"/><circle class="cls-45" cx="78.32" cy="147.37" r="11.53"/><circle class="cls-46" cx="66.49" cy="122.8" r="29.59"/><circle class="cls-47" cx="98.16" cy="115.01" r="22.84"/><ellipse class="cls-48" cx="113.22" cy="43.88" rx="8.31" ry="23.88"/><ellipse class="cls-7" cx="112.83" cy="46.74" rx="5.33" ry="15.32"/><ellipse class="cls-49" cx="141.77" cy="44.4" rx="8.31" ry="23.88"/><ellipse class="cls-50" cx="109.13" cy="140.5" rx="6.35" ry="18.27" transform="translate(-60.33 86.34) rotate(-34.44)"/><circle class="cls-51" cx="126.72" cy="92.68" r="25.44"/><circle class="cls-7" cx="150.92" cy="95.28" r="7.57"/><circle class="cls-7" cx="146.72" cy="90.24" r="2.94"/><circle class="cls-7" cx="150.92" cy="89.4" r="2.94"/><circle class="cls-7" cx="155.12" cy="91.08" r="2.94"/><circle class="cls-7" cx="156.8" cy="95.28" r="2.94"/><circle class="cls-7" cx="155.12" cy="99.48" r="2.94"/><circle class="cls-7" cx="151.76" cy="101.16" r="2.94"/><circle class="cls-7" cx="147.56" cy="101.16" r="2.94"/><circle class="cls-7" cx="145.03" cy="97.8" r="2.94"/><circle class="cls-7" cx="144.19" cy="93.6" r="2.94"/><circle class="cls-7" cx="102.31" cy="96.32" r="7.57"/><circle class="cls-7" cx="106.52" cy="91.27" r="2.94"/><circle class="cls-7" cx="102.31" cy="90.43" r="2.94"/><circle class="cls-7" cx="98.11" cy="92.12" r="2.94"/><circle class="cls-7" cx="96.43" cy="96.32" r="2.94"/><circle class="cls-7" cx="98.11" cy="100.52" r="2.94"/><circle class="cls-7" cx="101.47" cy="102.2" r="2.94"/><circle class="cls-7" cx="105.68" cy="102.2" r="2.94"/><circle class="cls-7" cx="108.2" cy="98.84" r="2.94"/><circle class="cls-7" cx="109.04" cy="94.64" r="2.94"/><circle class="cls-7" cx="43.44" cy="97.04" r="11.39"/><circle class="cls-7" cx="49.77" cy="89.45" r="4.43"/><circle class="cls-7" cx="43.44" cy="88.18" r="4.43"/><circle class="cls-7" cx="37.11" cy="90.71" r="4.43"/><circle class="cls-7" cx="34.58" cy="97.04" r="4.43"/><circle class="cls-7" cx="37.11" cy="103.37" r="4.43"/><circle class="cls-7" cx="42.18" cy="105.9" r="4.43"/><circle class="cls-7" cx="48.51" cy="105.9" r="4.43"/><circle class="cls-7" cx="52.3" cy="100.84" r="4.43"/><circle class="cls-7" cx="53.57" cy="94.51" r="4.43"/><circle cx="136.58" cy="84.9" r="2.6"/><circle cx="117.17" cy="85.12" r="2.87"/><circle class="cls-11" cx="116.33" cy="84.38" r="1.04"/><circle class="cls-11" cx="136.06" cy="84.38" r="1.04"/><path class="cls-10" d="M127.36,101.25a9.46,9.46,0,0,0,5.65,1.82,14.65,14.65,0,0,1-5.78,6.75,13.42,13.42,0,0,1-5.22-6.75A13,13,0,0,0,127.36,101.25Z"/><path class="cls-11" d="M126.72,102v4.15H123.6v-3.11A7,7,0,0,0,126.72,102Z"/><path class="cls-11" d="M127.75,102v4.15h3.12v-3.11A7,7,0,0,1,127.75,102Z"/><path class="cls-12" d="M127.75,95.8V101a12.2,12.2,0,0,1-6.23,2.08c-1.61-.06-3-1-4.15-3.12"/><path class="cls-12" d="M127.23,95.8V101a8.6,8.6,0,0,0,6.23,2.08c1.62-.06,3-1,4.16-3.12"/><ellipse class="cls-10" cx="127.23" cy="96.32" rx="4.15" ry="2.08"/><ellipse class="cls-7" cx="141.91" cy="47.78" rx="5.33" ry="15.32"/><ellipse class="cls-52" cx="46.24" cy="163.81" rx="8.31" ry="23.88" transform="translate(-114.55 107.98) rotate(-55.09)"/><circle class="cls-53" cx="46.5" cy="138.11" r="15.32"/><path class="cls-12" d="M48.84,167.44c1.94,3.29,2,5.78-.27,7.5"/><path class="cls-12" d="M54,169.52c1.94,3.29,2,5.77-.26,7.5"/><path class="cls-12" d="M58.19,171.6c1.93,3.29,2,5.77-.27,7.49"/><path class="cls-12" d="M87.28,165.35c3.48,1.57,5,3.57,4.1,6.28"/><path class="cls-12" d="M92.48,165.35c3.47,1.57,5,3.57,4.09,6.28"/><path class="cls-12" d="M96.63,164.31c3.48,1.57,5,3.57,4.1,6.28"/><ellipse class="cls-54" cx="121.43" cy="162.09" rx="6.35" ry="18.27" transform="matrix(0.92, -0.38, 0.38, 0.92, -52.5, 58.32)"/><circle class="cls-55" cx="132.43" cy="175.23" r="3.12"/><circle class="cls-56" cx="128.79" cy="178.87" r="3.63"/><circle class="cls-57" cx="123.08" cy="179.38" r="3.12"/><ellipse class="cls-58" cx="138.68" cy="143.32" rx="6.35" ry="18.27" transform="translate(-52.34 86.02) rotate(-29.24)"/><circle class="cls-59" cx="151.18" cy="155.04" r="3.12"/><circle class="cls-60" cx="148.01" cy="159.09" r="3.63"/><circle class="cls-61" cx="142.4" cy="160.29" r="3.12"/><path class="cls-12" d="M534.5,87.5a7.37,7.37,0,0,1,4.38-3.5,6.55,6.55,0,0,1,4.37,2.63"/><path class="cls-12" d="M551.5,86.5a7.37,7.37,0,0,1,4.38-3.5,6.55,6.55,0,0,1,4.37,2.63"/></svg>
