<svg id="Layer_1" data-name="Layer 1" xmlns="http://www.w3.org/2000/svg" xmlns:xlink="http://www.w3.org/1999/xlink" width="256" height="129" viewBox="0 0 256 129"><defs><style>.cls-1,.cls-10,.cls-11,.cls-12,.cls-13,.cls-14,.cls-15,.cls-16,.cls-17,.cls-18,.cls-19,.cls-2,.cls-20,.cls-21,.cls-22,.cls-23,.cls-24,.cls-25,.cls-26,.cls-27,.cls-3,.cls-4,.cls-5,.cls-6,.cls-7,.cls-8,.cls-9{stroke:#000;stroke-miterlimit:10;}.cls-1,.cls-2,.cls-26,.cls-3,.cls-4,.cls-5,.cls-6{stroke-width:3px;}.cls-1{fill:url(#linear-gradient);}.cls-2{fill:url(#linear-gradient-2);}.cls-3{fill:url(#linear-gradient-3);}.cls-4{fill:url(#linear-gradient-4);}.cls-5{fill:url(#linear-gradient-5);}.cls-6{fill:url(#linear-gradient-6);}.cls-10,.cls-11,.cls-12,.cls-14,.cls-15,.cls-16,.cls-17,.cls-18,.cls-20,.cls-22,.cls-24,.cls-27,.cls-7,.cls-8,.cls-9{stroke-width:2px;}.cls-7{fill:url(#linear-gradient-7);}.cls-8{fill:url(#linear-gradient-8);}.cls-9{fill:url(#linear-gradient-9);}.cls-10{fill:url(#linear-gradient-10);}.cls-11{fill:url(#linear-gradient-11);}.cls-12{fill:url(#linear-gradient-12);}.cls-13{fill:url(#linear-gradient-13);}.cls-14{fill:url(#linear-gradient-14);}.cls-15{fill:url(#linear-gradient-15);}.cls-16{fill:url(#linear-gradient-16);}.cls-17{fill:url(#linear-gradient-17);}.cls-18{fill:url(#linear-gradient-18);}.cls-19{fill:url(#linear-gradient-19);}.cls-20{fill:url(#linear-gradient-20);}.cls-21{fill:url(#linear-gradient-21);}.cls-22{fill:url(#linear-gradient-22);}.cls-23{fill:url(#linear-gradient-23);}.cls-24{fill:url(#linear-gradient-24);}.cls-25{fill:url(#linear-gradient-25);}.cls-26{fill:url(#linear-gradient-26);}.cls-27{fill:url(#linear-gradient-27);}</style><linearGradient id="linear-gradient" x1="84.73" y1="945.01" x2="118.74" y2="945.01" gradientTransform="matrix(1, 0, 0, -1, 0, 980)" gradientUnits="userSpaceOnUse"><stop offset="0" stop-color="#8c6239"/><stop offset="1" stop-color="#ed1e79"/></linearGradient><linearGradient id="linear-gradient-2" x1="12.52" y1="934.43" x2="47.52" y2="934.43" xlink:href="#linear-gradient"/><linearGradient id="linear-gradient-3" x1="53.83" y1="940.5" x2="86.49" y2="940.5" xlink:href="#linear-gradient"/><linearGradient id="linear-gradient-4" x1="61.34" y1="32.02" x2="74.32" y2="32.02" gradientUnits="userSpaceOnUse"><stop offset="0" stop-color="#00a99d"/><stop offset="0.52" stop-color="#29abe2"/><stop offset="1" stop-color="#0071bc"/></linearGradient><linearGradient id="linear-gradient-5" x1="92.38" y1="24.84" x2="110.84" y2="24.84" xlink:href="#linear-gradient-4"/><linearGradient id="linear-gradient-6" x1="121.47" y1="944.18" x2="151.09" y2="944.18" xlink:href="#linear-gradient"/><linearGradient id="linear-gradient-7" x1="266.22" y1="860.47" x2="282.73" y2="860.47" gradientTransform="matrix(0.99, -0.12, -0.12, -0.99, 42.96, 974.59)" gradientUnits="userSpaceOnUse"><stop offset="0" stop-color="lime"/><stop offset="0.96" stop-color="#2e3192"/><stop offset="1" stop-color="#1b1464"/></linearGradient><linearGradient id="linear-gradient-8" x1="96.15" y1="908.44" x2="112.6" y2="908.44" gradientTransform="matrix(1, 0, 0, -1, 0, 980)" gradientUnits="userSpaceOnUse"><stop offset="0" stop-color="#f7931e"/><stop offset="1" stop-color="#0071bc"/></linearGradient><linearGradient id="linear-gradient-9" x1="134.91" y1="909.44" x2="151.36" y2="909.44" xlink:href="#linear-gradient-8"/><linearGradient id="linear-gradient-10" x1="115.38" y1="908.77" x2="122.26" y2="908.77" xlink:href="#linear-gradient-8"/><linearGradient id="linear-gradient-11" x1="124.03" y1="908.77" x2="132" y2="908.77" xlink:href="#linear-gradient-8"/><linearGradient id="linear-gradient-12" x1="154.25" y1="910.39" x2="170.26" y2="910.39" xlink:href="#linear-gradient-8"/><linearGradient id="linear-gradient-13" x1="156.94" y1="65.56" x2="164.46" y2="65.56" xlink:href="#linear-gradient-4"/><linearGradient id="linear-gradient-14" x1="130.04" y1="857.48" x2="153.91" y2="857.48" xlink:href="#linear-gradient-7"/><linearGradient id="linear-gradient-15" x1="155.39" y1="858.76" x2="173.5" y2="858.76" xlink:href="#linear-gradient-7"/><linearGradient id="linear-gradient-16" x1="175.65" y1="858.88" x2="180.04" y2="858.88" xlink:href="#linear-gradient-7"/><linearGradient id="linear-gradient-17" x1="182.08" y1="858.89" x2="193.61" y2="858.89" xlink:href="#linear-gradient-7"/><linearGradient id="linear-gradient-18" x1="194.43" y1="858.94" x2="210.61" y2="858.94" xlink:href="#linear-gradient-7"/><linearGradient id="linear-gradient-19" x1="139.02" y1="97.96" x2="147.67" y2="97.96" xlink:href="#linear-gradient-4"/><linearGradient id="linear-gradient-20" x1="248.67" y1="859.15" x2="264.85" y2="859.15" xlink:href="#linear-gradient-7"/><linearGradient id="linear-gradient-21" x1="192.86" y1="91.45" x2="201.52" y2="91.45" xlink:href="#linear-gradient-4"/><linearGradient id="linear-gradient-22" x1="214.01" y1="860.77" x2="230.27" y2="860.77" xlink:href="#linear-gradient-7"/><linearGradient id="linear-gradient-23" x1="158.69" y1="90" x2="166.12" y2="90" xlink:href="#linear-gradient-4"/><linearGradient id="linear-gradient-24" x1="228.88" y1="860.68" x2="247.11" y2="860.68" xlink:href="#linear-gradient-7"/><linearGradient id="linear-gradient-25" x1="177.32" y1="88.06" x2="182.03" y2="88.06" xlink:href="#linear-gradient-4"/><linearGradient id="linear-gradient-26" x1="217.49" y1="928.6" x2="246.3" y2="899.8" gradientTransform="matrix(1, 0, 0, -1, 0, 980)" xlink:href="#linear-gradient-7"/><linearGradient id="linear-gradient-27" x1="235.65" y1="888.65" x2="243.35" y2="880.95" gradientTransform="matrix(1, 0, 0, -1, 0, 980)" xlink:href="#linear-gradient-7"/></defs><title>title</title><path class="cls-1" d="M87.49,24.47c-.32,11.58.31,22.35,4,30.54,3.89,2.23,7.58,3,10.72,0,1.74-4.53.11-10.2-2.52-16.25,5,5.35,8.88,10.73,8.84,16.25,3.42,2.85,6.84,2.41,10.25,0-2.31-8-6.85-15.18-13.41-21.61,5.41-.68,8.88-6.12,11.83-12.83-9.35-6.14-20.08-8.67-32.35-7.13C84.62,17.89,84.51,22.3,87.49,24.47Z"/><path class="cls-2" d="M14.7,42.18c-2-4.41-2.33-9.51-1.76-14.89C16.4,23,20.64,23,25.37,25.89c2.46,6.19,2.36,11.58,0,16.3,3.42-2.55,7-3.78,10.82-2.23-2-3.93-2-8.68-.68-14.06,3-2.49,6.47-2.61,10.28-1.25,2,6.44,2.56,12.35,0,17.18a28.53,28.53,0,0,1,0,19.58,17.48,17.48,0,0,1-10.55,1.81,39.92,39.92,0,0,1,.13-16.15,11.47,11.47,0,0,1-9.6,2.49,21.66,21.66,0,0,1-.13,14.34C23.44,67.07,20.36,68,16.58,67,12,61.14,11.19,52.58,14.7,42.18Z"/><path class="cls-3" d="M54.44,59.73c-1.37-11.88-.61-23.65,4.19-35.23,2.71-7,6.74-7.89,12.31-1.39,8.12,9.51,12.87,20.25,15.55,31.74-4,3.62-8.41,4-13.25,2.23l-4.6-13.92L68.5,56.52C65.27,61,60,60.66,54.44,59.73Z"/><path class="cls-4" d="M61.34,40.24a47.14,47.14,0,0,0,4-16.44c2.86,6.27,5.81,11.38,8.93,14.49C70.18,37.4,65.84,38.27,61.34,40.24Z"/><path class="cls-5" d="M92.38,19.27c2.26,4.33,3.14,8.22,2.2,11.53,3.9-3.7,9.65-6,16.26-7.63C104.53,20,98.31,18,92.38,19.27Z"/><path class="cls-6" d="M126,20.35l-4.56,34.37,25.34,2.43c2.6-2.81,2.28-6,0-9.57a32.23,32.23,0,0,0-16.37-1.45c2-1.91,1.8-5,1.26-8.27a21.79,21.79,0,0,0,11,.81c1.38-1.36,1.91-3.27.78-6.16a15.07,15.07,0,0,0-10.7-1.95c1.45-2.17,1.43-5,.94-8.1a42.4,42.4,0,0,0,15.74,2.75,7,7,0,0,0,1.42-6.34,74.14,74.14,0,0,0-24.39-4.37Z"/><path class="cls-7" d="M218.36,77.45l-.49.06c-2.92-.86-7.44.19-12.14,1.47l.58,5,1.76,15.54,15.46-1.88c1.09-1.36.93-2.92-.54-4.67-3.7-.91-7.31.06-10.9,1.45a5.4,5.4,0,0,0-.58-5c2.66.3,5.1.25,6.87-.84,1.05-1.43.75-2.82-.47-4.16-1.74-1-3.8-.41-6,.85a4.54,4.54,0,0,0-.44-3.91,10.67,10.67,0,0,0,7.35-1C219.88,79.09,220.17,78,218.36,77.45Z"/><path class="cls-8" d="M108.83,61.57h-.49c-2.8-1.2-7.4-.7-12.19,0V82.26h15.51c1.24-1.22,1.26-2.78,0-4.69-3.56-1.36-7.25-.81-11,.13a5.44,5.44,0,0,0,0-5.07c2.6.62,5,.86,6.9,0,1.21-1.3,1.06-2.72,0-4.19-1.61-1.17-3.71-.86-6,.13a4.5,4.5,0,0,0,0-3.93,10.56,10.56,0,0,0,7.39-.13C110.14,63.39,110.55,62.37,108.83,61.57Z"/><path class="cls-9" d="M147.6,60.57h-.5c-2.8-1.2-7.39-.7-12.19,0V81.26h15.52c1.24-1.22,1.25-2.78,0-4.69-3.56-1.36-7.25-.81-11,.13a5.44,5.44,0,0,0,0-5.07c2.6.62,5,.86,6.9,0,1.2-1.3,1-2.72,0-4.19-1.62-1.17-3.72-.86-6,.13a4.53,4.53,0,0,0,0-3.93,10.56,10.56,0,0,0,7.39-.13C148.92,62.39,149.32,61.37,147.6,60.57Z"/><path class="cls-10" d="M115.36,64.49V82.26h6.88V61.32a5.79,5.79,0,0,0-6.88,0Z"/><path class="cls-11" d="M125,81.74V61.32c2.44-1.43,4.77-1.57,7,0V82.26h-8"/><path class="cls-12" d="M154.25,61.21V80.48H160v-7.6l4.93,7.6h5.28a16.63,16.63,0,0,0-6.89-11c3-1.6,4.47-3.21,4.92-4.82,1.24-1.69,0-3.57-3.2-5.58C161,58.36,157.21,58.69,154.25,61.21Z"/><path class="cls-13" d="M156.94,62.86a5.06,5.06,0,0,1,0,5.7,10.28,10.28,0,0,0,7.52-2.79C163.1,63.26,160.89,61.91,156.94,62.86Z"/><path class="cls-14" d="M85.15,96.14c3.77-.67,7-.32,9.36,1.65a4.91,4.91,0,0,1-1.43,6c-1.64-2-4.11-3.33-8.3-3.37a9.59,9.59,0,0,1-4.46,4.91c5-.17,9.28.4,12.24,2.4,2.2,2.26,1.58,4.73-1.57,7.35l-16.42,2.49c-2.57-2.42-2.38-4.16.17-5.3,3.08.91,6.4.32,9.82-1.09-4.57-.72-8.16-2-10.06-4.44C77.35,102.09,80.81,98.39,85.15,96.14Z"/><path class="cls-15" d="M97.24,96.26a66.54,66.54,0,0,0,1,17.28c1.73.36,3.36.52,4.48-.54l-.34-7.19a10.47,10.47,0,0,0,6.25,5.7l4.84-.69c-4-2.53-7-5.32-8.69-8.39,2-3.28,5.28-6.15,9.24-8.78-.81-1.44-2-2.49-4.65-1.81a18.31,18.31,0,0,0-7.64,8.39,7.75,7.75,0,0,0-.27-6.63c-1.49-1.28-3.08-1.46-4.9.29Z"/><path class="cls-16" d="M116.78,92.31l1.41,18.32,3.63-.45L120.4,91.85C118.94,91,117.66,90.87,116.78,92.31Z"/><path class="cls-17" d="M122.49,91.61l2.09,18.24L136,108.47l-.44-3.92-7.71.93-1.45-14.34C125.13,90.07,123.81,90.32,122.49,91.61Z"/><path class="cls-18" d="M134.57,89.25l3.81,18.93c6.27-1.68,11-5,13.45-10.68Q144.42,88.57,134.57,89.25Z"/><path class="cls-19" d="M139,92.68c.74-.6,9,3.87,8.64,4.62a10.79,10.79,0,0,1-6.85,6A13.26,13.26,0,0,0,139,92.68Z"/><path class="cls-20" d="M188.42,82.72l3.8,18.92c6.28-1.68,11-5,13.46-10.68Q198.26,82.05,188.42,82.72Z"/><path class="cls-21" d="M192.86,86.17c.74-.6,9,3.87,8.64,4.62a10.79,10.79,0,0,1-6.84,6A13.26,13.26,0,0,0,192.86,86.17Z"/><path class="cls-22" d="M154.54,87.62l2,17.11c1.85,1.91,3.65.81,5.43-1.12l-1-8.86c3.61,1.72,6.77-1.09,9.85-4.6-3.42-5-9.8-6.49-17.15-6.75Z"/><path class="cls-23" d="M158.69,87.12a7.81,7.81,0,0,1,1.11,5.75c2.14.36,4.25-.62,6.32-2.62A8.17,8.17,0,0,0,158.69,87.12Z"/><path class="cls-24" d="M171,104.21l4.35-19.88c1.21-5.36,3.16-6.63,6.38-.78L189.12,102a7.38,7.38,0,0,1-5.94.72l-4.05-7.87-1,8.48C176.17,105.15,173.73,105.2,171,104.21Z"/><path class="cls-25" d="M177.82,91.32c-.88-2.6-.65-4.84,1.05-6.64,2.77,2.44,3.51,4.66,3,6.76Q179.61,89.16,177.82,91.32Z"/><path class="cls-26" d="M223.1,46.53c6.65-.19,12.69,1.67,17.72,6.88-.27,6-1,11.62-3.11,15.85L242.38,84c-2.24,3-5.56,4.26-10.42,3.2l-5-16,3.1-11.85c0-2.65-2-2.93-4.83-2.26L222,66.87l-5.91-2.56C215,62.89,217.16,48.66,223.1,46.53Z"/><ellipse class="cls-27" cx="239.5" cy="95.2" rx="5.36" ry="5.52"/></svg>
