<svg id="Layer_1" data-name="Layer 1" xmlns="http://www.w3.org/2000/svg" xmlns:xlink="http://www.w3.org/1999/xlink" width="865" height="200" viewBox="0 0 865 200"><defs><style>.cls-1,.cls-10,.cls-11,.cls-13,.cls-14,.cls-15,.cls-16,.cls-17,.cls-18,.cls-19,.cls-2,.cls-20,.cls-21,.cls-22,.cls-23,.cls-24,.cls-25,.cls-26,.cls-27,.cls-28,.cls-29,.cls-3,.cls-30,.cls-4,.cls-5,.cls-6,.cls-7,.cls-8,.cls-9{stroke:#000;stroke-miterlimit:10;}.cls-1{fill:url(#linear-gradient);}.cls-2{fill:url(#linear-gradient-2);}.cls-3{fill:url(#linear-gradient-3);}.cls-4{fill:url(#linear-gradient-4);}.cls-5{fill:#754c24;}.cls-6{fill:#fbb03b;}.cls-7{fill:#603813;}.cls-8{fill:none;}.cls-9{fill:url(#linear-gradient-5);}.cls-10{fill:url(#linear-gradient-6);}.cls-11{fill:url(#linear-gradient-7);}.cls-12,.cls-18{fill:#fff;}.cls-13{fill:url(#linear-gradient-8);}.cls-14{fill:url(#linear-gradient-9);}.cls-15{fill:url(#linear-gradient-10);}.cls-16{fill:url(#linear-gradient-11);}.cls-17{fill:url(#linear-gradient-12);}.cls-19{fill:url(#linear-gradient-13);}.cls-20{fill:url(#linear-gradient-14);}.cls-21{fill:url(#linear-gradient-15);}.cls-22{fill:url(#linear-gradient-16);}.cls-23{fill:url(#linear-gradient-17);}.cls-24{fill:url(#linear-gradient-18);}.cls-25{fill:url(#linear-gradient-19);}.cls-26{fill:url(#linear-gradient-20);}.cls-27{fill:url(#linear-gradient-21);}.cls-28{fill:url(#linear-gradient-22);}.cls-29{fill:url(#linear-gradient-23);}.cls-30{fill:url(#linear-gradient-24);}</style><linearGradient id="linear-gradient" x1="231.8" y1="124.14" x2="261.8" y2="124.14" gradientTransform="matrix(0, -1, -1, 0, 952.43, 378.8)" gradientUnits="userSpaceOnUse"><stop offset="0" stop-color="#37b34a"/><stop offset="0.52" stop-color="#009245"/><stop offset="1" stop-color="#006837"/></linearGradient><linearGradient id="linear-gradient-2" x1="817.21" y1="387.71" x2="847.21" y2="387.71" gradientTransform="matrix(0, -1, -1, 0, 993, 961.21)" xlink:href="#linear-gradient"/><linearGradient id="linear-gradient-3" x1="992.43" y1="145.49" x2="1011.02" y2="145.49" gradientTransform="matrix(-1, 0, 0, 1, 1496.29, 0)" xlink:href="#linear-gradient"/><linearGradient id="linear-gradient-4" x1="921.48" y1="146.63" x2="940.07" y2="146.63" gradientTransform="matrix(-1, 0, 0, 1, 1496.29, 0)" xlink:href="#linear-gradient"/><linearGradient id="linear-gradient-5" x1="987.12" y1="84.03" x2="1045.17" y2="84.03" gradientTransform="matrix(-1, 0, 0, 1, 1496.29, 0)" xlink:href="#linear-gradient"/><linearGradient id="linear-gradient-6" x1="898.71" y1="148.15" x2="917.3" y2="148.15" gradientTransform="matrix(-1, 0, 0, 1, 1496.29, 0)" xlink:href="#linear-gradient"/><linearGradient id="linear-gradient-7" x1="967.39" y1="147.39" x2="985.98" y2="147.39" gradientTransform="matrix(-1, 0, 0, 1, 1496.29, 0)" xlink:href="#linear-gradient"/><linearGradient id="linear-gradient-8" x1="331.43" y1="148.49" x2="350.02" y2="148.49" gradientTransform="matrix(-1, 0, 0, 1, 1077.29, 0)" xlink:href="#linear-gradient"/><linearGradient id="linear-gradient-9" x1="263.48" y1="149.63" x2="282.07" y2="149.63" gradientTransform="matrix(-1, 0, 0, 1, 1077.29, 0)" xlink:href="#linear-gradient"/><linearGradient id="linear-gradient-10" x1="344.12" y1="87.03" x2="402.17" y2="87.03" gradientTransform="matrix(-1, 0, 0, 1, 1077.29, 0)" xlink:href="#linear-gradient"/><linearGradient id="linear-gradient-11" x1="283.71" y1="151.15" x2="302.3" y2="151.15" gradientTransform="matrix(-1, 0, 0, 1, 1077.29, 0)" xlink:href="#linear-gradient"/><linearGradient id="linear-gradient-12" x1="351.39" y1="150.39" x2="369.98" y2="150.39" gradientTransform="matrix(-1, 0, 0, 1, 1077.29, 0)" xlink:href="#linear-gradient"/><linearGradient id="linear-gradient-13" x1="442.66" y1="213.67" x2="472.66" y2="213.67" gradientTransform="matrix(0, -1, -1, 0, 392.96, 583.66)" xlink:href="#linear-gradient"/><linearGradient id="linear-gradient-14" x1="578.43" y1="142.49" x2="597.02" y2="142.49" gradientTransform="matrix(-1, 0, 0, 1, 657.29, 0)" xlink:href="#linear-gradient"/><linearGradient id="linear-gradient-15" x1="507.48" y1="143.63" x2="526.07" y2="143.63" gradientTransform="matrix(-1, 0, 0, 1, 657.29, 0)" xlink:href="#linear-gradient"/><linearGradient id="linear-gradient-16" x1="573.12" y1="81.03" x2="631.17" y2="81.03" gradientTransform="matrix(-1, 0, 0, 1, 657.29, 0)" xlink:href="#linear-gradient"/><linearGradient id="linear-gradient-17" x1="484.71" y1="145.15" x2="503.3" y2="145.15" gradientTransform="matrix(-1, 0, 0, 1, 657.29, 0)" xlink:href="#linear-gradient"/><linearGradient id="linear-gradient-18" x1="553.39" y1="144.39" x2="571.98" y2="144.39" gradientTransform="matrix(-1, 0, 0, 1, 657.29, 0)" xlink:href="#linear-gradient"/><linearGradient id="linear-gradient-19" x1="630.59" y1="300.44" x2="660.59" y2="300.44" gradientTransform="matrix(0, -1, -1, 0, 692.73, 772.59)" xlink:href="#linear-gradient"/><linearGradient id="linear-gradient-20" x1="767.43" y1="143.49" x2="786.02" y2="143.49" gradientTransform="matrix(-1, 0, 0, 1, 1077.29, 0)" xlink:href="#linear-gradient"/><linearGradient id="linear-gradient-21" x1="699.48" y1="144.63" x2="718.07" y2="144.63" gradientTransform="matrix(-1, 0, 0, 1, 1077.29, 0)" xlink:href="#linear-gradient"/><linearGradient id="linear-gradient-22" x1="780.12" y1="82.03" x2="838.17" y2="82.03" gradientTransform="matrix(-1, 0, 0, 1, 1077.29, 0)" xlink:href="#linear-gradient"/><linearGradient id="linear-gradient-23" x1="719.71" y1="146.15" x2="738.3" y2="146.15" gradientTransform="matrix(-1, 0, 0, 1, 1077.29, 0)" xlink:href="#linear-gradient"/><linearGradient id="linear-gradient-24" x1="787.39" y1="145.39" x2="805.98" y2="145.39" gradientTransform="matrix(-1, 0, 0, 1, 1077.29, 0)" xlink:href="#linear-gradient"/></defs><title>turtle_ani</title><ellipse class="cls-1" cx="828.29" cy="132" rx="6" ry="15" transform="translate(364.61 830.92) rotate(-65.49)"/><ellipse class="cls-2" cx="605.29" cy="129" rx="6" ry="15" transform="translate(236.84 626.26) rotate(-65.49)"/><ellipse class="cls-3" cx="494.57" cy="145.49" rx="9.3" ry="13.85"/><ellipse class="cls-4" cx="565.52" cy="146.63" rx="9.3" ry="13.85"/><path class="cls-5" d="M538.58,125.76l63.56-.13a63.56,63.56,0,0,0-127.11.13Z"/><path class="cls-6" d="M538.58,125.38l63.56.05c-.08,11.53-28.74,21-63.56,21S475,136.94,475,125.38Z"/><path class="cls-7" d="M594.93,96.53l-6.83,6.28v8l6.83,4.55,5.7-3.26A63.25,63.25,0,0,0,594.93,96.53Z"/><path class="cls-7" d="M481.45,96.53l6.1,6.28v8l-6.1,4.55-5.09-3.26C477.51,107,479.87,102.13,481.45,96.53Z"/><polygon class="cls-7" points="595.12 115.14 588.1 125.66 601.95 125.39 595.12 115.14"/><polygon class="cls-7" points="581.08 115.14 574.06 125.66 587.91 125.39 581.08 115.14"/><polygon class="cls-7" points="566.66 115.14 559.64 125.66 573.49 125.39 566.66 115.14"/><polygon class="cls-7" points="552.24 115.14 545.22 125.66 559.07 125.39 552.24 115.14"/><polygon class="cls-7" points="537.82 115.14 530.8 125.66 544.65 125.39 537.82 115.14"/><polygon class="cls-7" points="523.78 114.76 516.77 125.28 530.62 125 523.78 114.76"/><polygon class="cls-7" points="509.37 114.76 502.35 125.28 516.2 125 509.37 114.76"/><polygon class="cls-7" points="494.95 114.76 487.93 125.28 501.78 125 494.95 114.76"/><polygon class="cls-7" points="482.05 114.76 475.03 125.28 488.88 125 482.05 114.76"/><polygon class="cls-7" points="594.37 95.47 588.29 90.48 589.22 87.54 594.37 95.47"/><polygon class="cls-7" points="588.29 102.62 581.08 94.65 573.87 102.62 573.87 110.21 581.08 115.14 588.29 110.59 588.29 102.62"/><polygon class="cls-7" points="573.87 102.62 566.66 94.65 559.45 102.62 559.45 110.21 566.66 115.14 573.87 110.59 573.87 102.62"/><polygon class="cls-7" points="573.87 82.13 566.66 74.16 559.45 82.13 559.45 89.72 566.66 94.65 573.87 90.1 573.87 82.13"/><polygon class="cls-7" points="559.45 82.13 552.24 74.16 545.03 82.13 545.03 89.72 552.24 94.65 559.45 90.1 559.45 82.13"/><polygon class="cls-7" points="545.03 81.75 537.82 73.78 530.62 81.75 530.62 89.34 537.82 94.27 545.03 89.72 545.03 81.75"/><polygon class="cls-7" points="530.62 81.75 523.41 73.78 516.2 81.75 516.2 89.34 523.41 94.27 530.62 89.72 530.62 81.75"/><polygon class="cls-7" points="516.2 82.13 508.99 74.16 501.78 82.13 501.78 89.72 508.99 94.65 516.2 90.1 516.2 82.13"/><polygon class="cls-7" points="559.45 102.62 552.24 94.65 545.03 102.62 545.03 110.21 552.24 115.14 559.45 110.59 559.45 102.62"/><polygon class="cls-7" points="545.03 102.62 537.82 94.65 530.62 102.62 530.62 110.21 537.82 115.14 545.03 110.59 545.03 102.62"/><polygon class="cls-7" points="530.62 102.62 523.41 94.65 516.2 102.62 516.2 110.21 523.41 115.14 530.62 110.59 530.62 102.62"/><polygon class="cls-7" points="516.2 102.62 508.99 94.65 501.78 102.62 501.78 110.21 508.99 115.14 516.2 110.59 516.2 102.62"/><polygon class="cls-7" points="501.78 102.62 494.57 94.65 487.36 102.62 487.36 110.21 494.57 115.14 501.78 110.59 501.78 102.62"/><path class="cls-7" d="M580.7,93.13l7.21-3.41-.19-4.37c-1.44-2.81-4-5.2-7-7.44l-6.45,5.36v7.59Z"/><polygon class="cls-7" points="494.57 94.65 501.78 89.72 501.78 82.13 496.93 77.93 489.38 85.72 489.26 88.96 494.57 94.65"/><path class="cls-7" d="M482,97.06l6.92-6.2.38-4.57A47.88,47.88,0,0,0,482,97.06Z"/><path class="cls-7" d="M565.93,74.16l5.55-3.35c-5.56-3.54-6.23-3.78-11.76-3.86v.25l-.08,3.17Z"/><polygon class="cls-7" points="552.24 74.16 559.45 70.37 559.64 65.84 546.63 62.72 546.55 70.37 552.24 74.16"/><path class="cls-7" d="M537.82,73.78l8.73-3.41V62.78a59.64,59.64,0,0,0-15.75-.09l-.19,7.68Z"/><path class="cls-7" d="M523.41,73.78l7.2-3.41.38-7.59a56.79,56.79,0,0,0-14.22,3.34l.19,4.25Z"/><path class="cls-7" d="M509,74.16l8-3.79V66.19a54.57,54.57,0,0,0-15.18,8Z"/><line class="cls-8" x1="574.82" y1="141.89" x2="586.58" y2="127.85"/><line class="cls-8" x1="559.07" y1="143.22" x2="572.16" y2="127.85"/><line class="cls-8" x1="546.17" y1="143.6" x2="557.74" y2="129.37"/><line class="cls-8" x1="532.7" y1="144.55" x2="547.31" y2="128.04"/><line class="cls-8" x1="519.61" y1="142.84" x2="532.89" y2="127.28"/><line class="cls-8" x1="507.47" y1="140.94" x2="519.99" y2="126.52"/><line class="cls-8" x1="496.47" y1="139.04" x2="506.71" y2="126.52"/><line class="cls-8" x1="485.08" y1="135.63" x2="493.43" y2="126.14"/><line class="cls-8" x1="587.15" y1="137.53" x2="595.5" y2="128.04"/><circle class="cls-9" cx="480.15" cy="84.03" r="29.03"/><ellipse class="cls-10" cx="588.29" cy="148.15" rx="9.3" ry="13.85"/><ellipse class="cls-11" cx="519.61" cy="147.39" rx="9.3" ry="13.85"/><circle cx="464.97" cy="77.96" r="2.85"/><circle cx="489.07" cy="77.77" r="3.41"/><circle class="cls-12" cx="490.21" cy="77.01" r="0.76"/><circle class="cls-12" cx="465.92" cy="77.01" r="0.76"/><path class="cls-8" d="M488.88,87.66c.18,7.29-4,11.24-11.59,12.34-7-.24-11-4.54-12-12"/><ellipse class="cls-13" cx="736.57" cy="148.49" rx="9.3" ry="13.85"/><ellipse class="cls-14" cx="804.52" cy="149.63" rx="9.3" ry="13.85"/><path class="cls-5" d="M762.58,128.76l63.56-.13a63.56,63.56,0,0,0-127.11.13Z"/><path class="cls-6" d="M762.58,128.38l63.56.05c-.08,11.53-28.74,21-63.56,21S699,139.94,699,128.38Z"/><path class="cls-7" d="M818.93,99.53l-6.83,6.28v8l6.83,4.55,5.7-3.26A63.25,63.25,0,0,0,818.93,99.53Z"/><path class="cls-7" d="M705.45,99.53l6.1,6.28v8l-6.1,4.55-5.09-3.26C701.51,110,703.87,105.13,705.45,99.53Z"/><polygon class="cls-7" points="819.12 118.14 812.1 128.66 825.95 128.38 819.12 118.14"/><polygon class="cls-7" points="805.08 118.14 798.06 128.66 811.91 128.38 805.08 118.14"/><polygon class="cls-7" points="790.66 118.14 783.64 128.66 797.49 128.38 790.66 118.14"/><polygon class="cls-7" points="776.24 118.14 769.22 128.66 783.07 128.38 776.24 118.14"/><polygon class="cls-7" points="761.82 118.14 754.8 128.66 768.65 128.38 761.82 118.14"/><polygon class="cls-7" points="747.78 117.76 740.77 128.28 754.62 128 747.78 117.76"/><polygon class="cls-7" points="733.37 117.76 726.35 128.28 740.2 128 733.37 117.76"/><polygon class="cls-7" points="718.95 117.76 711.93 128.28 725.78 128 718.95 117.76"/><polygon class="cls-7" points="706.05 117.76 699.03 128.28 712.88 128 706.05 117.76"/><polygon class="cls-7" points="818.37 98.47 812.29 93.48 813.22 90.54 818.37 98.47"/><polygon class="cls-7" points="812.29 105.62 805.08 97.65 797.87 105.62 797.87 113.21 805.08 118.14 812.29 113.59 812.29 105.62"/><polygon class="cls-7" points="797.87 105.62 790.66 97.65 783.45 105.62 783.45 113.21 790.66 118.14 797.87 113.59 797.87 105.62"/><polygon class="cls-7" points="797.87 85.13 790.66 77.16 783.45 85.13 783.45 92.72 790.66 97.65 797.87 93.1 797.87 85.13"/><polygon class="cls-7" points="783.45 85.13 776.24 77.16 769.03 85.13 769.03 92.72 776.24 97.65 783.45 93.1 783.45 85.13"/><polygon class="cls-7" points="769.03 84.75 761.82 76.78 754.62 84.75 754.62 92.34 761.82 97.27 769.03 92.72 769.03 84.75"/><polygon class="cls-7" points="754.62 84.75 747.41 76.78 740.2 84.75 740.2 92.34 747.41 97.27 754.62 92.72 754.62 84.75"/><polygon class="cls-7" points="740.2 85.13 732.99 77.16 725.78 85.13 725.78 92.72 732.99 97.65 740.2 93.1 740.2 85.13"/><polygon class="cls-7" points="783.45 105.62 776.24 97.65 769.03 105.62 769.03 113.21 776.24 118.14 783.45 113.59 783.45 105.62"/><polygon class="cls-7" points="769.03 105.62 761.82 97.65 754.62 105.62 754.62 113.21 761.82 118.14 769.03 113.59 769.03 105.62"/><polygon class="cls-7" points="754.62 105.62 747.41 97.65 740.2 105.62 740.2 113.21 747.41 118.14 754.62 113.59 754.62 105.62"/><polygon class="cls-7" points="740.2 105.62 732.99 97.65 725.78 105.62 725.78 113.21 732.99 118.14 740.2 113.59 740.2 105.62"/><polygon class="cls-7" points="725.78 105.62 718.57 97.65 711.36 105.62 711.36 113.21 718.57 118.14 725.78 113.59 725.78 105.62"/><path class="cls-7" d="M804.7,96.13l7.21-3.41-.19-4.37c-1.44-2.81-4-5.2-7-7.44l-6.45,5.36v7.59Z"/><polygon class="cls-7" points="718.57 97.65 725.78 92.72 725.78 85.13 720.93 80.93 713.38 88.72 713.26 91.96 718.57 97.65"/><path class="cls-7" d="M706,100.06l6.92-6.2.38-4.57A47.88,47.88,0,0,0,706,100.06Z"/><path class="cls-7" d="M789.93,77.16l5.55-3.35c-5.56-3.54-6.23-3.78-11.76-3.86v.25l-.08,3.17Z"/><polygon class="cls-7" points="776.24 77.16 783.45 73.37 783.64 68.84 770.63 65.72 770.55 73.37 776.24 77.16"/><path class="cls-7" d="M761.82,76.78l8.73-3.41V65.78a59.64,59.64,0,0,0-15.75-.09l-.19,7.68Z"/><path class="cls-7" d="M747.41,76.78l7.2-3.41.38-7.59a56.79,56.79,0,0,0-14.22,3.34l.19,4.25Z"/><path class="cls-7" d="M733,77.16l8-3.79V69.19a54.57,54.57,0,0,0-15.18,8Z"/><line class="cls-8" x1="798.82" y1="144.89" x2="810.58" y2="130.85"/><line class="cls-8" x1="783.07" y1="146.22" x2="796.16" y2="130.85"/><line class="cls-8" x1="770.17" y1="146.6" x2="781.74" y2="132.37"/><line class="cls-8" x1="756.7" y1="147.55" x2="771.31" y2="131.04"/><line class="cls-8" x1="743.61" y1="145.84" x2="756.89" y2="130.28"/><line class="cls-8" x1="731.47" y1="143.94" x2="743.99" y2="129.52"/><line class="cls-8" x1="720.47" y1="142.04" x2="730.71" y2="129.52"/><line class="cls-8" x1="709.08" y1="138.63" x2="717.43" y2="129.14"/><line class="cls-8" x1="811.15" y1="140.53" x2="819.5" y2="131.04"/><circle class="cls-15" cx="704.15" cy="87.03" r="29.03"/><ellipse class="cls-16" cx="784.29" cy="151.15" rx="9.3" ry="13.85"/><ellipse class="cls-17" cx="716.61" cy="150.39" rx="9.3" ry="13.85"/><path d="M689,81l2.85.11V81a2.85,2.85,0,1,0-5.69,0Z"/><path d="M713.07,80.77l3.41,0v0a3.42,3.42,0,1,0-6.83,0Z"/><circle class="cls-12" cx="714.21" cy="80.01" r="0.76"/><circle class="cls-12" cx="689.92" cy="80.01" r="0.76"/><path class="cls-18" d="M712.88,90.66a12.55,12.55,0,0,1-1.36,6.42c-1.78,3.27-5.28,5.2-10.23,5.92a12.58,12.58,0,0,1-6.29-1.73,10,10,0,0,1-1.6-1.21A11.61,11.61,0,0,1,691,96.83a18.4,18.4,0,0,1-1.7-5.83,28.08,28.08,0,0,0,11.5,2.5A28.58,28.58,0,0,0,712.88,90.66Z"/><ellipse class="cls-19" cx="179.29" cy="126" rx="6" ry="15" transform="translate(-9.73 236.88) rotate(-65.49)"/><ellipse class="cls-20" cx="69.57" cy="142.49" rx="9.3" ry="13.85"/><ellipse class="cls-21" cx="140.52" cy="143.63" rx="9.3" ry="13.85"/><path class="cls-5" d="M113.58,122.76l63.56-.13A63.56,63.56,0,0,0,50,122.76Z"/><path class="cls-6" d="M113.58,122.38l63.56.05c-.08,11.53-28.74,21-63.56,21S50,133.94,50,122.38Z"/><path class="cls-7" d="M169.93,93.53l-6.83,6.28v8l6.83,4.55,5.7-3.26A63.25,63.25,0,0,0,169.93,93.53Z"/><path class="cls-7" d="M56.45,93.53l6.1,6.28v8l-6.1,4.55-5.09-3.26C52.51,104,54.87,99.13,56.45,93.53Z"/><polygon class="cls-7" points="170.12 112.14 163.1 122.66 176.95 122.39 170.12 112.14"/><polygon class="cls-7" points="156.08 112.14 149.06 122.66 162.91 122.39 156.08 112.14"/><polygon class="cls-7" points="141.66 112.14 134.64 122.66 148.49 122.39 141.66 112.14"/><polygon class="cls-7" points="127.24 112.14 120.22 122.66 134.07 122.39 127.24 112.14"/><polygon class="cls-7" points="112.82 112.14 105.81 122.66 119.65 122.39 112.82 112.14"/><polygon class="cls-7" points="98.78 111.76 91.77 122.28 105.61 122 98.78 111.76"/><polygon class="cls-7" points="84.37 111.76 77.35 122.28 91.2 122 84.37 111.76"/><polygon class="cls-7" points="69.95 111.76 62.93 122.28 76.78 122 69.95 111.76"/><polygon class="cls-7" points="57.05 111.76 50.03 122.28 63.88 122 57.05 111.76"/><polygon class="cls-7" points="169.37 92.47 163.29 87.48 164.22 84.54 169.37 92.47"/><polygon class="cls-7" points="163.29 99.62 156.08 91.65 148.87 99.62 148.87 107.21 156.08 112.14 163.29 107.59 163.29 99.62"/><polygon class="cls-7" points="148.87 99.62 141.66 91.65 134.45 99.62 134.45 107.21 141.66 112.14 148.87 107.59 148.87 99.62"/><polygon class="cls-7" points="148.87 79.13 141.66 71.16 134.45 79.13 134.45 86.72 141.66 91.65 148.87 87.1 148.87 79.13"/><polygon class="cls-7" points="134.45 79.13 127.24 71.16 120.03 79.13 120.03 86.72 127.24 91.65 134.45 87.1 134.45 79.13"/><polygon class="cls-7" points="120.03 78.75 112.82 70.78 105.61 78.75 105.61 86.34 112.82 91.27 120.03 86.72 120.03 78.75"/><polygon class="cls-7" points="105.61 78.75 98.41 70.78 91.2 78.75 91.2 86.34 98.41 91.27 105.61 86.72 105.61 78.75"/><polygon class="cls-7" points="91.2 79.13 83.99 71.16 76.78 79.13 76.78 86.72 83.99 91.65 91.2 87.1 91.2 79.13"/><polygon class="cls-7" points="134.45 99.62 127.24 91.65 120.03 99.62 120.03 107.21 127.24 112.14 134.45 107.59 134.45 99.62"/><polygon class="cls-7" points="120.03 99.62 112.82 91.65 105.61 99.62 105.61 107.21 112.82 112.14 120.03 107.59 120.03 99.62"/><polygon class="cls-7" points="105.61 99.62 98.41 91.65 91.2 99.62 91.2 107.21 98.41 112.14 105.61 107.59 105.61 99.62"/><polygon class="cls-7" points="91.2 99.62 83.99 91.65 76.78 99.62 76.78 107.21 83.99 112.14 91.2 107.59 91.2 99.62"/><polygon class="cls-7" points="76.78 99.62 69.57 91.65 62.36 99.62 62.36 107.21 69.57 112.14 76.78 107.59 76.78 99.62"/><path class="cls-7" d="M155.7,90.13l7.21-3.41-.19-4.37c-1.44-2.81-4-5.2-7-7.44l-6.45,5.36v7.59Z"/><polygon class="cls-7" points="69.57 91.65 76.78 86.72 76.78 79.13 71.93 74.93 64.38 82.72 64.26 85.96 69.57 91.65"/><path class="cls-7" d="M57,94.06l6.92-6.2.38-4.57A47.88,47.88,0,0,0,57,94.06Z"/><path class="cls-7" d="M140.93,71.16l5.55-3.35c-5.56-3.54-6.23-3.78-11.76-3.86v.25l-.08,3.17Z"/><polygon class="cls-7" points="127.24 71.16 134.45 67.37 134.64 62.84 121.63 59.72 121.55 67.37 127.24 71.16"/><path class="cls-7" d="M112.82,70.78l8.73-3.41V59.78a59.64,59.64,0,0,0-15.75-.09l-.19,7.68Z"/><path class="cls-7" d="M98.41,70.78l7.2-3.41.38-7.59a56.79,56.79,0,0,0-14.22,3.34L92,67.37Z"/><path class="cls-7" d="M84,71.16l8-3.79V63.19a54.57,54.57,0,0,0-15.18,8Z"/><line class="cls-8" x1="149.82" y1="138.89" x2="161.58" y2="124.85"/><line class="cls-8" x1="134.07" y1="140.22" x2="147.16" y2="124.85"/><line class="cls-8" x1="121.17" y1="140.6" x2="132.74" y2="126.37"/><line class="cls-8" x1="107.7" y1="141.55" x2="122.31" y2="125.04"/><line class="cls-8" x1="94.61" y1="139.84" x2="107.89" y2="124.28"/><line class="cls-8" x1="82.47" y1="137.94" x2="94.99" y2="123.52"/><line class="cls-8" x1="71.47" y1="136.04" x2="81.71" y2="123.52"/><line class="cls-8" x1="60.08" y1="132.63" x2="68.43" y2="123.14"/><line class="cls-8" x1="162.15" y1="134.53" x2="170.5" y2="125.04"/><circle class="cls-22" cx="55.15" cy="81.03" r="29.03"/><ellipse class="cls-23" cx="163.29" cy="145.15" rx="9.3" ry="13.85"/><ellipse class="cls-24" cx="94.61" cy="144.39" rx="9.3" ry="13.85"/><circle cx="39.97" cy="74.96" r="2.85"/><circle cx="64.07" cy="74.77" r="3.41"/><circle class="cls-12" cx="65.21" cy="74.01" r="0.76"/><circle class="cls-12" cx="41.21" cy="74" r="0.76"/><path class="cls-8" d="M63.88,84.66C64.06,92,59.87,95.9,52.29,97c-7-.24-11-4.54-12-12"/><line class="cls-18" x1="691.79" y1="97.5" x2="710.79" y2="97.5"/><path d="M40,76l2.85.11V76a2.85,2.85,0,1,0-5.69,0Z"/><circle class="cls-12" cx="40.92" cy="75.01" r="0.76"/><ellipse class="cls-25" cx="392.29" cy="127" rx="6" ry="15" transform="translate(114.01 431.28) rotate(-65.49)"/><ellipse class="cls-26" cx="300.57" cy="143.49" rx="9.3" ry="13.85"/><ellipse class="cls-27" cx="368.52" cy="144.63" rx="9.3" ry="13.85"/><path class="cls-5" d="M326.58,123.76l63.56-.13a63.56,63.56,0,0,0-127.11.13Z"/><path class="cls-6" d="M326.58,123.38l63.56.05c-.08,11.53-28.74,21-63.56,21S263,134.94,263,123.38Z"/><path class="cls-7" d="M382.93,94.53l-6.83,6.28v8l6.83,4.55,5.7-3.26A63.25,63.25,0,0,0,382.93,94.53Z"/><path class="cls-7" d="M269.45,94.53l6.1,6.28v8l-6.1,4.55-5.09-3.26C265.51,105,267.87,100.13,269.45,94.53Z"/><polygon class="cls-7" points="383.12 113.14 376.1 123.66 389.95 123.39 383.12 113.14"/><polygon class="cls-7" points="369.08 113.14 362.06 123.66 375.91 123.39 369.08 113.14"/><polygon class="cls-7" points="354.66 113.14 347.64 123.66 361.49 123.39 354.66 113.14"/><polygon class="cls-7" points="340.24 113.14 333.22 123.66 347.07 123.39 340.24 113.14"/><polygon class="cls-7" points="325.82 113.14 318.81 123.66 332.65 123.39 325.82 113.14"/><polygon class="cls-7" points="311.79 112.76 304.77 123.28 318.62 123 311.79 112.76"/><polygon class="cls-7" points="297.37 112.76 290.35 123.28 304.2 123 297.37 112.76"/><polygon class="cls-7" points="282.95 112.76 275.93 123.28 289.78 123 282.95 112.76"/><polygon class="cls-7" points="270.05 112.76 263.03 123.28 276.88 123 270.05 112.76"/><polygon class="cls-7" points="382.37 93.47 376.29 88.48 377.22 85.54 382.37 93.47"/><polygon class="cls-7" points="376.29 100.62 369.08 92.65 361.87 100.62 361.87 108.21 369.08 113.14 376.29 108.59 376.29 100.62"/><polygon class="cls-7" points="361.87 100.62 354.66 92.65 347.45 100.62 347.45 108.21 354.66 113.14 361.87 108.59 361.87 100.62"/><polygon class="cls-7" points="361.87 80.13 354.66 72.16 347.45 80.13 347.45 87.72 354.66 92.65 361.87 88.1 361.87 80.13"/><polygon class="cls-7" points="347.45 80.13 340.24 72.16 333.03 80.13 333.03 87.72 340.24 92.65 347.45 88.1 347.45 80.13"/><polygon class="cls-7" points="333.03 79.75 325.82 71.78 318.62 79.75 318.62 87.34 325.82 92.27 333.03 87.72 333.03 79.75"/><polygon class="cls-7" points="318.62 79.75 311.41 71.78 304.2 79.75 304.2 87.34 311.41 92.27 318.62 87.72 318.62 79.75"/><polygon class="cls-7" points="304.2 80.13 296.99 72.16 289.78 80.13 289.78 87.72 296.99 92.65 304.2 88.1 304.2 80.13"/><polygon class="cls-7" points="347.45 100.62 340.24 92.65 333.03 100.62 333.03 108.21 340.24 113.14 347.45 108.59 347.45 100.62"/><polygon class="cls-7" points="333.03 100.62 325.82 92.65 318.62 100.62 318.62 108.21 325.82 113.14 333.03 108.59 333.03 100.62"/><polygon class="cls-7" points="318.62 100.62 311.41 92.65 304.2 100.62 304.2 108.21 311.41 113.14 318.62 108.59 318.62 100.62"/><polygon class="cls-7" points="304.2 100.62 296.99 92.65 289.78 100.62 289.78 108.21 296.99 113.14 304.2 108.59 304.2 100.62"/><polygon class="cls-7" points="289.78 100.62 282.57 92.65 275.36 100.62 275.36 108.21 282.57 113.14 289.78 108.59 289.78 100.62"/><path class="cls-7" d="M368.7,91.13l7.21-3.41-.19-4.37c-1.44-2.81-4-5.2-7-7.44l-6.45,5.36v7.59Z"/><polygon class="cls-7" points="282.57 92.65 289.78 87.72 289.78 80.13 284.93 75.93 277.38 83.72 277.26 86.96 282.57 92.65"/><path class="cls-7" d="M270,95.06l6.92-6.2.38-4.57A47.88,47.88,0,0,0,270,95.06Z"/><path class="cls-7" d="M353.93,72.16l5.55-3.35c-5.56-3.54-6.23-3.78-11.76-3.86v.25l-.08,3.17Z"/><polygon class="cls-7" points="340.24 72.16 347.45 68.37 347.64 63.84 334.63 60.72 334.55 68.37 340.24 72.16"/><path class="cls-7" d="M325.82,71.78l8.73-3.41V60.78a59.64,59.64,0,0,0-15.75-.09l-.19,7.68Z"/><path class="cls-7" d="M311.41,71.78l7.2-3.41.38-7.59a56.79,56.79,0,0,0-14.22,3.34l.19,4.25Z"/><path class="cls-7" d="M297,72.16l8-3.79V64.19a54.57,54.57,0,0,0-15.18,8Z"/><line class="cls-8" x1="362.82" y1="139.89" x2="374.58" y2="125.85"/><line class="cls-8" x1="347.07" y1="141.22" x2="360.16" y2="125.85"/><line class="cls-8" x1="334.17" y1="141.6" x2="345.74" y2="127.37"/><line class="cls-8" x1="320.7" y1="142.55" x2="335.31" y2="126.04"/><line class="cls-8" x1="307.61" y1="140.84" x2="320.89" y2="125.28"/><line class="cls-8" x1="295.47" y1="138.94" x2="307.99" y2="124.52"/><line class="cls-8" x1="284.47" y1="137.04" x2="294.71" y2="124.52"/><line class="cls-8" x1="273.08" y1="133.63" x2="281.43" y2="124.14"/><line class="cls-8" x1="375.15" y1="135.53" x2="383.5" y2="126.04"/><circle class="cls-28" cx="268.15" cy="82.03" r="29.03"/><ellipse class="cls-29" cx="348.29" cy="146.15" rx="9.3" ry="13.85"/><ellipse class="cls-30" cx="280.61" cy="145.39" rx="9.3" ry="13.85"/><path d="M277.07,75.77l3.41,0v0a3.42,3.42,0,1,0-6.83,0Z"/><circle class="cls-12" cx="278.21" cy="75.01" r="0.76"/><path d="M254.07,75.77l3.41,0v0a3.42,3.42,0,1,0-6.83,0Z"/><circle class="cls-12" cx="255.21" cy="75.01" r="0.76"/><path class="cls-18" d="M276.88,85.66a12.55,12.55,0,0,1-1.36,6.42c-1.78,3.27-5.28,5.2-10.23,5.92A12.58,12.58,0,0,1,259,96.27a10,10,0,0,1-1.6-1.21A11.61,11.61,0,0,1,255,91.83a18.4,18.4,0,0,1-1.7-5.83,28.08,28.08,0,0,0,11.5,2.5A28.58,28.58,0,0,0,276.88,85.66Z"/><line class="cls-18" x1="255.79" y1="92.5" x2="274.79" y2="92.5"/></svg>
