<svg id="Layer_1" data-name="Layer 1" xmlns="http://www.w3.org/2000/svg" xmlns:xlink="http://www.w3.org/1999/xlink" width="592" height="382" viewBox="0 0 592 382"><defs><style>.cls-1{fill:url(#linear-gradient);}.cls-2{fill:url(#linear-gradient-2);}.cls-3{stroke:#000;stroke-miterlimit:10;fill:url(#radial-gradient);}.cls-4{fill:url(#linear-gradient-3);}.cls-5{fill:url(#linear-gradient-4);}.cls-6{fill:url(#linear-gradient-5);}.cls-7{fill:url(#linear-gradient-6);}.cls-8{fill:url(#linear-gradient-7);}.cls-9{fill:url(#linear-gradient-8);}.cls-10{fill:url(#linear-gradient-9);}.cls-11{fill:url(#linear-gradient-10);}.cls-12{fill:url(#linear-gradient-11);}.cls-13{fill:url(#linear-gradient-12);}.cls-14{fill:url(#linear-gradient-13);}.cls-15{fill:url(#linear-gradient-14);}.cls-16{fill:#c5ffcc;opacity:0.8;}.cls-17{opacity:0.48;}.cls-18{fill:#606060;}</style><linearGradient id="linear-gradient" x1="98.75" y1="84.83" x2="493.75" y2="479.83" gradientUnits="userSpaceOnUse"><stop offset="0" stop-color="#37b34a"/><stop offset="0.52" stop-color="#009245"/><stop offset="1" stop-color="#006837"/></linearGradient><linearGradient id="linear-gradient-2" x1="101.78" y1="287.16" x2="490.72" y2="-101.78" gradientUnits="userSpaceOnUse"><stop offset="0" stop-color="#00a99d"/><stop offset="0.52" stop-color="#29abe2"/><stop offset="1" stop-color="#0071bc"/></linearGradient><radialGradient id="radial-gradient" cx="250.55" cy="29.72" r="18.11" gradientTransform="translate(-0.58 0.54) scale(2.16 2.08)" gradientUnits="userSpaceOnUse"><stop offset="0" stop-color="#f2f2f2"/><stop offset="1" stop-color="#fcee21"/></radialGradient><linearGradient id="linear-gradient-3" x1="77.73" y1="176.31" x2="111.13" y2="176.31" gradientTransform="translate(-23.33 14.4) rotate(-7.29)" gradientUnits="userSpaceOnUse"><stop offset="0" stop-color="#27a949"/><stop offset="0.34" stop-color="#25a648"/><stop offset="0.56" stop-color="#209e46"/><stop offset="0.73" stop-color="#188f42"/><stop offset="0.89" stop-color="#0b7b3c"/><stop offset="1" stop-color="#006837"/></linearGradient><linearGradient id="linear-gradient-4" x1="103.14" y1="180.73" x2="132.73" y2="180.73" xlink:href="#linear-gradient-3"/><linearGradient id="linear-gradient-5" x1="112.76" y1="181.39" x2="146.17" y2="181.39" gradientTransform="matrix(0.65, -0.08, 0.1, 0.81, 34.6, 42.54)" xlink:href="#linear-gradient-3"/><linearGradient id="linear-gradient-6" x1="186.64" y1="190.25" x2="220.03" y2="190.25" gradientTransform="translate(-23.33 14.4) rotate(-7.29)" gradientUnits="userSpaceOnUse"><stop offset="0" stop-color="#27a949"/><stop offset="0.22" stop-color="#23a347"/><stop offset="0.52" stop-color="#199243"/><stop offset="0.86" stop-color="#08763b"/><stop offset="1" stop-color="#006837"/></linearGradient><linearGradient id="linear-gradient-7" x1="212.05" y1="194.67" x2="241.64" y2="194.67" xlink:href="#linear-gradient-6"/><linearGradient id="linear-gradient-8" x1="279.08" y1="198.4" x2="312.5" y2="198.4" gradientTransform="matrix(0.65, -0.08, 0.1, 0.81, 34.6, 42.54)" xlink:href="#linear-gradient-6"/><linearGradient id="linear-gradient-9" x1="305.52" y1="205.47" x2="338.92" y2="205.47" gradientTransform="translate(-23.33 14.4) rotate(-7.29)" gradientUnits="userSpaceOnUse"><stop offset="0" stop-color="#27a949"/><stop offset="0.23" stop-color="#24a448"/><stop offset="0.5" stop-color="#1c9644"/><stop offset="0.78" stop-color="#0e803e"/><stop offset="1" stop-color="#006837"/></linearGradient><linearGradient id="linear-gradient-10" x1="330.93" y1="209.88" x2="360.52" y2="209.88" xlink:href="#linear-gradient-9"/><linearGradient id="linear-gradient-11" x1="460.66" y1="216.97" x2="494.07" y2="216.97" gradientTransform="matrix(0.65, -0.08, 0.1, 0.81, 34.6, 42.54)" xlink:href="#linear-gradient-9"/><linearGradient id="linear-gradient-12" x1="436.99" y1="223.24" x2="470.39" y2="223.24" gradientTransform="translate(-23.33 14.4) rotate(-7.29)" gradientUnits="userSpaceOnUse"><stop offset="0" stop-color="#27a949"/><stop offset="0.35" stop-color="#168d41"/><stop offset="0.76" stop-color="#06723a"/><stop offset="1" stop-color="#006837"/></linearGradient><linearGradient id="linear-gradient-13" x1="462.4" y1="227.66" x2="491.99" y2="227.66" xlink:href="#linear-gradient-12"/><linearGradient id="linear-gradient-14" x1="661.46" y1="238.66" x2="694.87" y2="238.66" gradientTransform="matrix(0.65, -0.08, 0.1, 0.81, 34.6, 42.54)" xlink:href="#linear-gradient-12"/></defs><title>background</title><rect class="cls-1" x="0.5" y="183.08" width="591.5" height="198.5"/><rect class="cls-2" x="0.5" y="-0.5" width="591.5" height="186.38"/><ellipse class="cls-3" cx="540.98" cy="62.49" rx="39.14" ry="37.74"/><path class="cls-4" d="M77.17,187.37c3.56-10.28,15.74-16.88,30.82-22.25-1.06.95-10.94,14.27-3.85,20.94Z"/><path class="cls-5" d="M102.82,187.62c3.15-9.11,14-15,27.31-19.71-.94.84-9.7,12.64-3.42,18.55Z"/><path class="cls-6" d="M127.53,187.08c2.13-8.31,10-13.45,19.82-17.5-.68.75-6.91,11.42-2.12,17Z"/><path class="cls-7" d="M187,187.37c3.56-10.28,15.74-16.88,30.82-22.25-1.05.95-10.94,14.27-3.85,20.94Z"/><path class="cls-8" d="M212.61,187.62c3.16-9.11,13.95-15,27.31-19.71-.94.84-9.69,12.64-3.41,18.55Z"/><path class="cls-9" d="M237.32,187.08c2.14-8.31,10-13.45,19.82-17.5-.68.75-6.91,11.42-2.12,17Z"/><path class="cls-10" d="M306.82,187.37c3.56-10.28,15.74-16.88,30.82-22.25-1.06.95-10.94,14.27-3.86,20.94Z"/><path class="cls-11" d="M332.47,187.62c3.15-9.11,13.94-15,27.31-19.71-.94.84-9.7,12.64-3.42,18.55Z"/><path class="cls-12" d="M357.18,187.08c2.13-8.31,10-13.45,19.81-17.5-.67.75-6.9,11.42-2.11,17Z"/><path class="cls-13" d="M439.48,188.31C443,178,455.22,171.43,470.3,166.07c-1.05.94-10.94,14.27-3.85,20.93Z"/><path class="cls-14" d="M465.13,188.56c3.15-9.11,13.95-14.95,27.31-19.71-.94.84-9.69,12.65-3.41,18.55Z"/><path class="cls-15" d="M489.84,188c2.13-8.32,10-13.45,19.82-17.51-.68.75-6.91,11.42-2.12,17Z"/><ellipse class="cls-16" cx="285.3" cy="129.69" rx="12.61" ry="15.19" transform="translate(129.79 401.77) rotate(-84.7)"/><ellipse class="cls-16" cx="263.2" cy="127.92" rx="11.88" ry="9.86" transform="translate(-15.98 40.19) rotate(-8.48)"/><ellipse class="cls-16" cx="241.05" cy="133.87" rx="12.57" ry="15.14" transform="translate(86.08 361.93) rotate(-84.85)"/><ellipse class="cls-16" cx="248.91" cy="115.71" rx="11.15" ry="11.26" transform="translate(-16.63 46.18) rotate(-10.26)"/><ellipse class="cls-16" cx="283.93" cy="111.97" rx="7.63" ry="6.85" transform="translate(114.89 366.09) rotate(-77.89)"/><ellipse class="cls-16" cx="269.15" cy="113.47" rx="9.83" ry="11.84" transform="translate(131.98 371.34) rotate(-84.85)"/><ellipse class="cls-16" cx="264.15" cy="137.96" rx="9.77" ry="4.7" transform="translate(-3.72 7.37) rotate(-1.59)"/><g class="cls-17"><path class="cls-18" d="M289,139.19,267.2,141.3V141c-.47-5.62,9-11.06,21-12.06s22.16,2.82,22.59,8.43Z"/><ellipse class="cls-18" cx="305.39" cy="141.19" rx="10.76" ry="6.93" transform="translate(-11.02 26.81) rotate(-4.94)"/><ellipse class="cls-18" cx="285.77" cy="142.82" rx="10.76" ry="6.93" transform="translate(-11.23 25.13) rotate(-4.94)"/><ellipse class="cls-18" cx="268.8" cy="143.64" rx="10.76" ry="6.93" transform="translate(-11.37 23.67) rotate(-4.94)"/><ellipse class="cls-18" cx="271.51" cy="134.78" rx="7.93" ry="6.2" transform="translate(-11.04 25.02) rotate(-5.17)"/><ellipse class="cls-18" cx="302.77" cy="132.19" rx="8" ry="6.93" transform="translate(-11.37 29.91) rotate(-5.55)"/><ellipse class="cls-18" cx="286.06" cy="131.97" rx="10.76" ry="6.93" transform="translate(-10.3 25.11) rotate(-4.94)"/></g><ellipse class="cls-16" cx="501.37" cy="135.59" rx="10.33" ry="12.44" transform="translate(320.01 622.28) rotate(-84.7)"/><ellipse class="cls-16" cx="483.27" cy="134.14" rx="9.74" ry="8.08" transform="translate(-14.49 72.69) rotate(-8.48)"/><ellipse class="cls-16" cx="465.12" cy="139.02" rx="10.3" ry="12.4" transform="translate(284.92 589.79) rotate(-84.85)"/><ellipse class="cls-16" cx="471.56" cy="124.14" rx="9.14" ry="9.22" transform="translate(-14.57 85.96) rotate(-10.26)"/><ellipse class="cls-16" cx="500.25" cy="121.07" rx="6.25" ry="5.62" transform="translate(276.93 584.79) rotate(-77.89)"/><ellipse class="cls-16" cx="488.14" cy="122.3" rx="8.05" ry="9.7" transform="translate(322.52 597.5) rotate(-84.85)"/><ellipse class="cls-16" cx="484.05" cy="142.37" rx="8" ry="3.85" transform="translate(-3.76 13.46) rotate(-1.59)"/><g class="cls-17"><path class="cls-18" d="M504.38,143.37l-17.83,1.74v-.25c-.39-4.61,7.38-9.06,17.18-9.88s18.15,2.31,18.5,6.91Z"/><ellipse class="cls-18" cx="517.84" cy="145.02" rx="8.82" ry="5.67" transform="translate(-10.56 45.11) rotate(-4.94)"/><ellipse class="cls-18" cx="501.76" cy="146.35" rx="8.82" ry="5.67" transform="translate(-10.73 43.73) rotate(-4.94)"/><ellipse class="cls-18" cx="487.85" cy="147.02" rx="8.82" ry="5.67" transform="translate(-10.84 42.54) rotate(-4.94)"/><ellipse class="cls-18" cx="490.08" cy="139.77" rx="6.5" ry="5.08" transform="translate(-10.6 44.73) rotate(-5.17)"/><ellipse class="cls-18" cx="515.69" cy="137.64" rx="6.56" ry="5.67" transform="translate(-10.9 50.54) rotate(-5.55)"/><ellipse class="cls-18" cx="502" cy="137.46" rx="8.82" ry="5.67" transform="translate(-9.97 43.72) rotate(-4.94)"/></g><ellipse class="cls-16" cx="194.72" cy="62.79" rx="12.61" ry="15.19" transform="translate(114.2 250.87) rotate(-84.7)"/><ellipse class="cls-16" cx="172.62" cy="61.02" rx="11.88" ry="9.86" transform="translate(-7.11 26.11) rotate(-8.48)"/><ellipse class="cls-16" cx="150.47" cy="66.97" rx="12.57" ry="15.14" transform="translate(70.26 210.82) rotate(-84.85)"/><ellipse class="cls-16" cx="158.33" cy="48.81" rx="11.15" ry="11.26" transform="translate(-6.16 28.98) rotate(-10.26)"/><ellipse class="cls-16" cx="193.35" cy="45.07" rx="7.63" ry="6.85" transform="translate(108.73 224.66) rotate(-77.89)"/><ellipse class="cls-16" cx="178.57" cy="46.57" rx="9.83" ry="11.84" transform="translate(116.16 220.24) rotate(-84.85)"/><ellipse class="cls-16" cx="173.57" cy="71.06" rx="9.77" ry="4.7" transform="translate(-1.9 4.83) rotate(-1.59)"/><g class="cls-17"><path class="cls-18" d="M198.39,72.29,176.62,74.4v-.3c-.47-5.62,9-11,21-12.06s22.16,2.82,22.58,8.44Z"/><ellipse class="cls-18" cx="214.82" cy="74.29" rx="10.76" ry="6.93" transform="translate(-5.6 18.77) rotate(-4.94)"/><ellipse class="cls-18" cx="195.2" cy="75.92" rx="10.76" ry="6.93" transform="translate(-5.81 17.08) rotate(-4.94)"/><ellipse class="cls-18" cx="178.22" cy="76.74" rx="10.76" ry="6.93" transform="translate(-5.94 15.63) rotate(-4.94)"/><ellipse class="cls-18" cx="180.93" cy="67.88" rx="7.93" ry="6.2" transform="translate(-5.38 16.58) rotate(-5.17)"/><ellipse class="cls-18" cx="212.19" cy="65.29" rx="8" ry="6.93" transform="translate(-5.32 20.84) rotate(-5.55)"/><ellipse class="cls-18" cx="195.48" cy="65.07" rx="10.76" ry="6.93" transform="translate(-4.88 17.07) rotate(-4.94)"/></g></svg>
