<?xml version="1.0" encoding="utf-8"?>
<!-- Generator: Adobe Illustrator 23.0.2, SVG Export Plug-In . SVG Version: 6.00 Build 0)  -->
<svg version="1.1" id="Layer_1" xmlns="http://www.w3.org/2000/svg" xmlns:xlink="http://www.w3.org/1999/xlink" x="0px" y="0px"
	 viewBox="0 0 577 265" style="enable-background:new 0 0 577 265;" xml:space="preserve">
<style type="text/css">
	.st0{fill:url(#SVGID_1_);stroke:#000000;stroke-width:3;stroke-miterlimit:10;}
	.st1{fill:url(#SVGID_2_);stroke:#000000;stroke-width:3;stroke-miterlimit:10;}
	.st2{fill:#FFFFFF;stroke:#000000;stroke-width:3;stroke-miterlimit:10;}
	.st3{fill:url(#SVGID_3_);stroke:#000000;stroke-width:3;stroke-miterlimit:10;}
	.st4{fill:url(#SVGID_4_);stroke:#000000;stroke-width:3;stroke-miterlimit:10;}
	.st5{fill:url(#SVGID_5_);stroke:#000000;stroke-width:3;stroke-miterlimit:10;}
	.st6{fill:url(#SVGID_6_);stroke:#000000;stroke-width:3;stroke-miterlimit:10;}
	.st7{fill:url(#SVGID_7_);stroke:#000000;stroke-width:3;stroke-miterlimit:10;}
	.st8{fill:url(#SVGID_8_);stroke:#000000;stroke-width:3;stroke-miterlimit:10;}
	.st9{fill:url(#SVGID_9_);stroke:#000000;stroke-width:3;stroke-miterlimit:10;}
	.st10{fill:url(#SVGID_10_);stroke:#000000;stroke-width:3;stroke-miterlimit:10;}
	.st11{fill:url(#SVGID_11_);stroke:#000000;stroke-width:3;stroke-miterlimit:10;}
	.st12{fill:url(#SVGID_12_);stroke:#000000;stroke-width:3;stroke-miterlimit:10;}
	.st13{fill:url(#SVGID_13_);stroke:#000000;stroke-width:3;stroke-miterlimit:10;}
	.st14{fill:url(#SVGID_14_);stroke:#000000;stroke-width:3;stroke-miterlimit:10;}
	.st15{fill:url(#SVGID_15_);stroke:#000000;stroke-width:3;stroke-miterlimit:10;}
	.st16{fill:url(#SVGID_16_);stroke:#000000;stroke-width:3;stroke-miterlimit:10;}
	.st17{fill:url(#SVGID_17_);stroke:#000000;stroke-width:3;stroke-miterlimit:10;}
	.st18{fill:url(#SVGID_18_);stroke:#000000;stroke-width:3;stroke-miterlimit:10;}
	.st19{fill:url(#SVGID_19_);stroke:#000000;stroke-width:3;stroke-miterlimit:10;}
	.st20{fill:url(#SVGID_20_);stroke:#000000;stroke-width:3;stroke-miterlimit:10;}
</style>
<title>Hare_eller_skildpade</title>
<linearGradient id="SVGID_1_" gradientUnits="userSpaceOnUse" x1="22.869" y1="103.1458" x2="64.0008" y2="103.1458" gradientTransform="matrix(1 0 0 -1 0 266)">
	<stop  offset="0" style="stop-color:#8C6239"/>
	<stop  offset="1" style="stop-color:#ED1E79"/>
</linearGradient>
<path class="st0" d="M25.4,159c-2.4-5-2.7-10.9-2.1-17c4.1-4.9,9-4.9,14.6-1.6c2.9,7.1,2.8,13.2,0,18.6c4-2.9,8.2-4.3,12.7-2.5
	c-2.3-4.5-2.4-9.9-0.8-16c3.5-2.8,7.6-3,12.1-1.4c2.4,7.3,3,14.1,0,19.6c2.7,7.2,2.7,15.1,0,22.3c-3.9,2.1-8.1,2.5-12.4,2.1
	c-1.1-6.2-1.3-12.4,0.2-18.4c-3.2,2.6-7.3,3.6-11.3,2.8c1.8,5.7,1.8,11.2-0.2,16.4c-2.6,3.6-6.2,4.7-10.6,3.5
	C22.3,180.6,21.3,170.9,25.4,159z"/>
<linearGradient id="SVGID_2_" gradientUnits="userSpaceOnUse" x1="71.4202" y1="110.0784" x2="109.8027" y2="110.0784" gradientTransform="matrix(1 0 0 -1 0 266)">
	<stop  offset="0" style="stop-color:#8C6239"/>
	<stop  offset="1" style="stop-color:#ED1E79"/>
</linearGradient>
<path class="st1" d="M72.1,179c-1.6-13.6-0.7-27,4.9-40.2c3.2-8,7.9-9,14.5-1.6c9.5,10.9,15.1,23.1,18.3,36.2
	c-4.7,4.1-9.9,4.6-15.6,2.5l-5.4-15.9l-0.2,15.3C84.9,180.4,78.7,180.1,72.1,179z"/>
<path class="st2" d="M80.2,156.8c2.6-5.3,4.2-11.6,4.8-18.8c3.4,7.2,6.8,13,10.5,16.5C90.6,153.5,85.5,154.5,80.2,156.8z"/>
<linearGradient id="SVGID_3_" gradientUnits="userSpaceOnUse" x1="107.7287" y1="115.22" x2="147.7041" y2="115.22" gradientTransform="matrix(1 0 0 -1 0 266)">
	<stop  offset="0" style="stop-color:#8C6239"/>
	<stop  offset="1" style="stop-color:#ED1E79"/>
</linearGradient>
<path class="st3" d="M111,138.8c-0.4,13.2,0.4,25.5,4.7,34.9c4.6,2.5,8.9,3.4,12.6,0c2-5.2,0.1-11.6-3-18.5
	c5.9,6.1,10.4,12.2,10.4,18.5c4,3.3,8,2.8,12,0c-2.7-9.1-8-17.3-15.8-24.7c6.4-0.8,10.4-7,13.9-14.6c-11-7-23.6-9.9-38-8.1
	C107.6,131.3,107.5,136.3,111,138.8z"/>
<path class="st2" d="M116.7,132.8c2.7,4.9,3.7,9.4,2.6,13.2c4.6-4.2,11.3-6.8,19.1-8.7C131,133.6,123.7,131.4,116.7,132.8z"/>
<linearGradient id="SVGID_4_" gradientUnits="userSpaceOnUse" x1="150.913" y1="114.2727" x2="185.7305" y2="114.2727" gradientTransform="matrix(1 0 0 -1 0 266)">
	<stop  offset="0" style="stop-color:#8C6239"/>
	<stop  offset="1" style="stop-color:#ED1E79"/>
</linearGradient>
<path class="st4" d="M156.3,134.1l-5.4,39.2l29.8,2.8c3.1-3.2,2.7-6.9,0-10.9c-6.2-2.2-12.8-2.7-19.2-1.7c2.3-2.2,2.1-5.7,1.5-9.4
	c4.5,1.4,8.9,1.8,12.9,0.9c1.6-1.6,2.2-3.7,0.9-7c-3.5-2.1-7.5-3-12.6-2.2c1.7-2.5,1.7-5.7,1.1-9.2c5.9,2.2,12.2,3.2,18.5,3.1
	c1.8-2,2.2-4.4,1.7-7.2c-9.2-3.2-18.9-4.9-28.7-5L156.3,134.1z"/>
<linearGradient id="SVGID_5_" gradientUnits="userSpaceOnUse" x1="256.8147" y1="65.207" x2="276.2039" y2="65.207" gradientTransform="matrix(0.9932 -0.1168 -0.1168 -0.9932 3.8296 307.0821)">
	<stop  offset="0" style="stop-color:#29ABE2"/>
	<stop  offset="1" style="stop-color:#006837"/>
</linearGradient>
<path class="st5" d="M264.8,199.2l-0.6,0.1c-3.4-1-8.7,0.2-14.3,1.7l0.7,5.8l2.1,17.7l18.2-2.1c1.3-1.6,1.1-3.3-0.6-5.3
	c-4.3-1-8.6,0.1-12.8,1.7c0.8-1.9,0.5-3.9-0.7-5.8c3.1,0.4,6,0.3,8.1-1c1.2-1.6,0.9-3.2-0.6-4.8c-2-1.1-4.5-0.5-7,1
	c0.7-1.8,0.1-3.2-0.5-4.5c2.9,0.6,6,0.2,8.6-1.2C266.6,201.1,266.9,199.9,264.8,199.2z"/>
<linearGradient id="SVGID_6_" gradientUnits="userSpaceOnUse" x1="124.679" y1="73.4945" x2="144.0128" y2="73.4945" gradientTransform="matrix(1 0 0 -1 0 266)">
	<stop  offset="0" style="stop-color:#F7931E"/>
	<stop  offset="1" style="stop-color:#0071BC"/>
</linearGradient>
<path class="st6" d="M139.6,181.1H139c-3.3-1.4-8.7-0.8-14.3,0v23.6h18.2c1.5-1.4,1.5-3.2,0-5.4c-4.2-1.6-8.5-0.9-12.9,0.1
	c1-1.8,0.9-3.8,0-5.8c3.1,0.7,5.9,1,8.1,0c1.4-1.5,1.2-3.1,0-4.8c-1.9-1.3-4.4-1-7.1,0.1c0.9-1.8,0.5-3.1,0-4.5
	c2.8,1,5.9,0.9,8.7-0.1C141.1,183.2,141.6,182,139.6,181.1z"/>
<linearGradient id="SVGID_7_" gradientUnits="userSpaceOnUse" x1="162.0121" y1="73.4945" x2="181.3459" y2="73.4945" gradientTransform="matrix(1 0 0 -1 0 266)">
	<stop  offset="0" style="stop-color:#F7931E"/>
	<stop  offset="1" style="stop-color:#0071BC"/>
</linearGradient>
<path class="st7" d="M176.9,181.1h-0.6c-3.3-1.4-8.7-0.8-14.3,0v23.6h18.2c1.5-1.4,1.5-3.2,0-5.4c-4.2-1.6-8.5-0.9-12.9,0.1
	c1-1.8,0.9-3.8,0-5.8c3.1,0.7,5.9,1,8.1,0c1.4-1.5,1.2-3.1,0-4.8c-1.9-1.3-4.4-1-7.1,0.1c0.9-1.8,0.5-3.1,0-4.5
	c2.8,1,5.9,0.9,8.7-0.1C178.5,183.2,178.9,182,176.9,181.1z"/>
<linearGradient id="SVGID_8_" gradientUnits="userSpaceOnUse" x1="146.9652" y1="73.8703" x2="150.8716" y2="73.8703" gradientTransform="matrix(1 0 0 -1 0 266)">
	<stop  offset="0" style="stop-color:#F7931E"/>
	<stop  offset="1" style="stop-color:#0071BC"/>
</linearGradient>
<path class="st8" d="M146.9,184.4v20.3h3.9v-23.9c-1.3-1.7-2.6-1.7-3.9,0V184.4z"/>
<linearGradient id="SVGID_9_" gradientUnits="userSpaceOnUse" x1="154.4887" y1="73.8671" x2="159.1237" y2="73.8671" gradientTransform="matrix(1 0 0 -1 0 266)">
	<stop  offset="0" style="stop-color:#F7931E"/>
	<stop  offset="1" style="stop-color:#0071BC"/>
</linearGradient>
<path class="st9" d="M155.1,204.1v-23.3c1.4-1.6,2.8-1.8,4.1,0v23.9h-4.7"/>
<linearGradient id="SVGID_10_" gradientUnits="userSpaceOnUse" x1="184.7375" y1="74.5737" x2="203.5513" y2="74.5737" gradientTransform="matrix(1 0 0 -1 0 266)">
	<stop  offset="0" style="stop-color:#F7931E"/>
	<stop  offset="1" style="stop-color:#0071BC"/>
</linearGradient>
<path class="st10" d="M184.7,181.8v22h6.8v-8.7l5.8,8.7h6.2c-0.8-5.1-3.5-9.3-8.1-12.6c3.5-1.8,5.3-3.7,5.8-5.5
	c1.5-1.9-0.1-4.1-3.8-6.4C192.6,178.6,188.2,179,184.7,181.8z"/>
<path class="st2" d="M189.1,183.7c1.2,2.1,1.6,4.2,0,6.5c3.2,0.2,6.4-1,8.8-3.2C196.3,184.2,193.7,182.6,189.1,183.7z"/>
<linearGradient id="SVGID_11_" gradientUnits="userSpaceOnUse" x1="96.8271" y1="62.3114" x2="124.8141" y2="62.3114" gradientTransform="matrix(0.9932 -0.1168 -0.1168 -0.9932 3.8296 307.0821)">
	<stop  offset="0" style="stop-color:#29ABE2"/>
	<stop  offset="1" style="stop-color:#006837"/>
</linearGradient>
<path class="st11" d="M108.2,220.6c4.4-0.8,8.2-0.4,11,1.9c1.1,2.6,0.6,4.9-1.7,6.9c-1.9-2.3-4.8-3.8-9.8-3.8
	c-0.9,2.4-2.7,4.2-5.2,5.6c5.9-0.2,10.9,0.4,14.4,2.7c2.6,2.6,1.9,5.4-1.8,8.4l-19.3,2.8c-3-2.8-2.8-4.7,0.2-6
	c3.6,1,7.5,0.4,11.5-1.2c-5.4-0.8-9.6-2.3-11.8-5.1C99.1,227.4,103.1,223.1,108.2,220.6z"/>
<linearGradient id="SVGID_12_" gradientUnits="userSpaceOnUse" x1="126.5875" y1="63.6956" x2="147.8183" y2="63.6956" gradientTransform="matrix(0.9932 -0.1168 -0.1168 -0.9932 3.8296 307.0821)">
	<stop  offset="0" style="stop-color:#29ABE2"/>
	<stop  offset="1" style="stop-color:#006837"/>
</linearGradient>
<path class="st12" d="M122.4,220.7c-0.6,5.9,0,12.6,1.2,19.7c2,0.4,3.9,0.6,5.3-0.6l-0.4-8.2c1.4,3.1,3.8,5.2,7.3,6.5l5.7-0.8
	c-4.7-2.9-8.2-6.1-10.2-9.6c2.4-3.7,6.2-7,10.9-10c-0.9-1.7-2.3-2.8-5.5-2.1c-4.1,2.5-7.2,5.6-9,9.6c1.2-2.7,0.8-5.2-0.3-7.6
	c-1.7-1.5-3.6-1.7-5.8,0.3L122.4,220.7z"/>
<linearGradient id="SVGID_13_" gradientUnits="userSpaceOnUse" x1="150.4156" y1="63.7557" x2="155.4904" y2="63.7557" gradientTransform="matrix(0.9932 -0.1168 -0.1168 -0.9932 3.8296 307.0821)">
	<stop  offset="0" style="stop-color:#29ABE2"/>
	<stop  offset="1" style="stop-color:#006837"/>
</linearGradient>
<path class="st13" d="M145.4,216.2l1.7,20.9l4.3-0.5l-1.7-20.9C147.9,214.7,146.4,214.5,145.4,216.2z"/>
<linearGradient id="SVGID_14_" gradientUnits="userSpaceOnUse" x1="157.9701" y1="63.7521" x2="171.4927" y2="63.7521" gradientTransform="matrix(0.9932 -0.1168 -0.1168 -0.9932 3.8296 307.0821)">
	<stop  offset="0" style="stop-color:#29ABE2"/>
	<stop  offset="1" style="stop-color:#006837"/>
</linearGradient>
<path class="st14" d="M152.1,215.4l2.4,20.8l13.4-1.6l-0.5-4.5l-9.1,1.1l-1.7-16.4C155.2,213.6,153.7,213.9,152.1,215.4z"/>
<linearGradient id="SVGID_15_" gradientUnits="userSpaceOnUse" x1="172.3963" y1="63.7608" x2="191.4438" y2="63.7608" gradientTransform="matrix(0.9932 -0.1168 -0.1168 -0.9932 3.8296 307.0821)">
	<stop  offset="0" style="stop-color:#29ABE2"/>
	<stop  offset="1" style="stop-color:#006837"/>
</linearGradient>
<path class="st15" d="M166.3,212.7l4.5,21.6c7.4-1.9,12.9-5.7,15.8-12.2C180.8,215.3,174,212.2,166.3,212.7z"/>
<path class="st2" d="M171.5,216.6c0.9-0.7,10.6,4.4,10.2,5.3c-1.6,3.4-4.3,5.7-8,6.8C174.7,224.6,174,220.2,171.5,216.6z"/>
<linearGradient id="SVGID_16_" gradientUnits="userSpaceOnUse" x1="236.1175" y1="63.7772" x2="255.165" y2="63.7772" gradientTransform="matrix(0.9932 -0.1168 -0.1168 -0.9932 3.8296 307.0821)">
	<stop  offset="0" style="stop-color:#29ABE2"/>
	<stop  offset="1" style="stop-color:#006837"/>
</linearGradient>
<path class="st16" d="M229.6,205.2l4.5,21.6c7.4-1.9,12.9-5.7,15.8-12.2C244.1,207.9,237.3,204.7,229.6,205.2z"/>
<path class="st2" d="M234.8,209.2c0.9-0.7,10.6,4.4,10.2,5.3c-1.6,3.4-4.3,5.7-8,6.8C238,217.1,237.3,212.7,234.8,209.2z"/>
<linearGradient id="SVGID_17_" gradientUnits="userSpaceOnUse" x1="195.391" y1="65.7668" x2="214.5252" y2="65.7668" gradientTransform="matrix(0.9932 -0.1168 -0.1168 -0.9932 3.8296 307.0821)">
	<stop  offset="0" style="stop-color:#29ABE2"/>
	<stop  offset="1" style="stop-color:#006837"/>
</linearGradient>
<path class="st17" d="M189.8,210.8l2.3,19.5c2.2,2.2,4.3,0.9,6.4-1.3l-1.2-10.1c4.2,2,8-1.2,11.6-5.2c-4-5.8-11.5-7.4-20.2-7.7
	L189.8,210.8z"/>
<path class="st2" d="M194.7,210.3c1.3,1.9,1.8,4.3,1.3,6.6c2.5,0.4,5-0.7,7.4-3C200.9,211.1,198,209.9,194.7,210.3z"/>
<linearGradient id="SVGID_18_" gradientUnits="userSpaceOnUse" x1="212.9494" y1="65.5868" x2="234.3648" y2="65.5868" gradientTransform="matrix(0.9932 -0.1168 -0.1168 -0.9932 3.8296 307.0821)">
	<stop  offset="0" style="stop-color:#29ABE2"/>
	<stop  offset="1" style="stop-color:#006837"/>
</linearGradient>
<path class="st18" d="M209.2,229.8l5.1-22.7c1.4-6.1,3.7-7.6,7.5-0.9l8.7,21.1c-2,1.3-4.4,1.4-7,0.8l-4.8-9l-1.2,9.7
	C215.2,230.8,212.3,230.9,209.2,229.8z"/>
<path class="st2" d="M217.1,215.1c-1-3-0.8-5.5,1.2-7.6c3.3,2.8,4.1,5.3,3.6,7.7C220.1,213.5,218.5,213.4,217.1,215.1z"/>
<linearGradient id="SVGID_19_" gradientUnits="userSpaceOnUse" x1="264.1473" y1="96.7611" x2="297.3737" y2="63.5346" gradientTransform="matrix(1 0 0 -1 0 266)">
	<stop  offset="0" style="stop-color:#00FF00"/>
	<stop  offset="0.96" style="stop-color:#2E3192"/>
	<stop  offset="1" style="stop-color:#1B1464"/>
</linearGradient>
<path class="st19" d="M270.4,163.9c7.8-0.2,14.9,1.9,20.8,7.9c-0.3,6.9-1.2,13.3-3.7,18.1l5.5,16.8c-2.6,3.4-6.5,4.9-12.2,3.7
	l-5.8-18.3l3.7-13.5c0-3-2.3-3.3-5.7-2.6l-3.8,11.2l-6.9-2.9C260.8,182.6,263.4,166.4,270.4,163.9z"/>
<linearGradient id="SVGID_20_" gradientUnits="userSpaceOnUse" x1="285.1794" y1="53.254" x2="294.0946" y2="44.3388" gradientTransform="matrix(1 0 0 -1 0 266)">
	<stop  offset="0" style="stop-color:#00FF00"/>
	<stop  offset="0.96" style="stop-color:#2E3192"/>
	<stop  offset="1" style="stop-color:#1B1464"/>
</linearGradient>
<circle class="st20" cx="289.6" cy="217.2" r="6.3"/>
</svg>
